<svg xmlns="http://www.w3.org/2000/svg" width="200" height="200" class="icon" viewBox="0 0 1024 1024"><path d="M184.32 843.947c-43.093-43.52-76.8-93.014-100.267-149.334A461.2 461.2 0 0 1 46.933 512c0-63.573 12.374-124.587 37.12-182.613 23.467-56.32 57.174-105.814 100.267-149.334 43.52-43.093 93.013-76.8 149.333-100.266 58.027-24.747 119.04-37.12 182.614-37.12S640.853 55.04 698.88 79.787c56.32 23.466 105.813 57.173 149.333 100.266 43.094 43.52 76.8 93.014 100.267 149.334C973.227 387.413 985.6 448.427 985.6 512s-12.373 124.587-37.12 182.613c-23.467 56.32-57.173 105.814-100.267 149.334-43.52 43.093-93.013 76.8-149.333 100.266-58.027 24.747-119.04 37.12-182.613 37.12-63.574 0-124.587-12.373-182.614-37.12-56.32-23.466-105.813-57.173-149.333-100.266m54.613-374.614c2.987 0 5.547.427 8.534.854q3.84.64 7.68 2.56 3.84 1.28 7.68 3.84l6.4 5.12 5.12 6.4q2.559 3.84 3.84 7.68 1.92 3.84 2.56 7.68c.426 2.986.853 5.546.853 8.533s-.427 5.547-.853 8.533q-.64 3.84-2.56 7.68-1.281 3.84-3.84 7.68l-5.12 6.4-6.4 5.12q-3.84 2.56-7.68 3.84-3.84 1.92-7.68 2.56c-2.987.427-5.547.854-8.534.854H134.656c4.096 36.778 13.483 72.405 27.99 106.666a375.9 375.9 0 0 0 82.346 122.027 375.9 375.9 0 0 0 122.027 82.347c34.261 14.506 69.845 23.893 106.666 27.946v-104.32c0-2.986.427-5.546.854-8.533q.64-3.84 2.56-7.68 1.28-3.84 3.84-7.68l5.12-6.4 6.4-5.12q3.84-2.56 7.68-3.84 3.84-1.92 7.68-2.56c2.986-.427 5.546-.853 8.533-.853s5.547.426 8.533.853q3.84.64 7.68 2.56 3.84 1.28 7.68 3.84l6.4 5.12 5.12 6.4q2.56 3.84 3.84 7.68 1.92 3.84 2.56 7.68c.427 2.987.854 5.547.854 8.533v104.32a379.6 379.6 0 0 0 106.666-27.946 375.9 375.9 0 0 0 122.027-82.347 375.9 375.9 0 0 0 82.347-122.027c14.506-34.261 23.893-69.888 27.946-106.666H772.267c-2.987 0-5.547-.427-8.534-.854a27.1 27.1 0 0 1-7.68-2.56 32.3 32.3 0 0 1-7.68-3.84l-6.4-5.12-5.12-6.4a32.3 32.3 0 0 1-3.84-7.68 27.1 27.1 0 0 1-2.56-7.68c-.426-2.986-.853-5.546-.853-8.533s.427-5.547.853-8.533q.64-3.84 2.56-7.68 1.281-3.84 3.84-7.68l5.12-6.4 6.4-5.12q3.84-2.56 7.68-3.84 3.84-1.92 7.68-2.56c2.987-.427 5.547-.854 8.534-.854H897.92a379.6 379.6 0 0 0-27.947-106.666 375.9 375.9 0 0 0-82.346-122.027A375.9 375.9 0 0 0 665.6 158.293a379.6 379.6 0 0 0-106.667-27.946v104.32c0 2.986-.426 5.546-.853 8.533q-.64 3.84-2.56 7.68-1.28 3.84-3.84 7.68l-5.12 6.4-6.4 5.12q-3.84 2.56-7.68 3.84-3.84 1.92-7.68 2.56c-2.987.427-5.547.853-8.533.853s-5.547-.426-8.534-.853a27.1 27.1 0 0 1-7.68-2.56 32.3 32.3 0 0 1-7.68-3.84l-6.4-5.12-5.12-6.4a32.3 32.3 0 0 1-3.84-7.68 27.1 27.1 0 0 1-2.56-7.68c-.426-2.987-.853-5.547-.853-8.533v-104.32a379.6 379.6 0 0 0-106.667 27.946 375.9 375.9 0 0 0-122.026 82.347 375.9 375.9 0 0 0-82.347 122.027 379.6 379.6 0 0 0-27.99 106.666zM582.827 354.56c20.48 8.96 38.4 20.907 54.186 36.693s27.734 33.707 36.694 54.187c8.96 21.333 13.226 43.52 13.226 66.56s-4.266 45.227-13.226 66.56c-8.96 20.48-20.907 38.4-36.694 54.187s-33.706 27.733-54.186 36.693c-21.334 8.96-43.52 13.227-66.56 13.227s-45.227-4.267-66.56-13.227c-20.48-8.96-38.4-20.907-54.187-36.693s-27.733-33.707-36.693-54.187c-8.96-21.333-13.227-43.52-13.227-66.56s4.267-45.227 13.227-66.56c8.96-20.48 20.906-38.4 36.693-54.187s33.707-27.733 54.187-36.693c21.333-8.96 43.52-13.227 66.56-13.227s45.226 4.267 66.56 13.227m-5.974 218.027c7.68-8.107 13.654-17.067 17.92-27.307 4.694-10.667 6.827-21.76 6.827-33.28s-2.133-22.613-6.827-33.28c-4.266-10.24-10.24-19.2-17.92-27.307-8.106-7.68-17.066-13.653-27.306-17.92-10.667-4.693-21.76-6.826-33.28-6.826s-22.614 2.133-33.28 6.826c-10.24 4.267-19.2 10.24-27.307 17.92-7.68 8.107-13.653 17.067-17.92 27.307-4.693 10.667-6.827 21.76-6.827 33.28s2.134 22.613 6.827 33.28c4.267 10.24 10.24 19.2 17.92 27.307 8.107 7.68 17.067 13.653 27.307 17.92 10.666 4.693 21.76 6.826 33.28 6.826s22.613-2.133 33.28-6.826c10.24-4.267 19.2-10.24 27.306-17.92"/></svg>