<?xml version="1.0" standalone="no"?><!DOCTYPE svg PUBLIC "-//W3C//DTD SVG 1.1//EN" "http://www.w3.org/Graphics/SVG/1.1/DTD/svg11.dtd"><svg t="1705142631661" class="icon" viewBox="0 0 1024 1024" version="1.1" xmlns="http://www.w3.org/2000/svg" p-id="8826" xmlns:xlink="http://www.w3.org/1999/xlink" width="200" height="200"><path d="M184.32 843.946667c-43.093333-43.52-76.8-93.013333-100.266667-149.333334A461.226667 461.226667 0 0 1 46.933333 512c0-63.573333 12.373333-124.586667 37.12-182.613333 23.466667-56.32 57.173333-105.813333 100.266667-149.333334 43.52-43.093333 93.013333-76.8 149.333333-100.266666C391.68 55.04 452.693333 42.666667 516.266667 42.666667c63.573333 0 124.586667 12.373333 182.613333 37.12 56.32 23.466667 105.813333 57.173333 149.333333 100.266666 43.093333 43.52 76.8 93.013333 100.266667 149.333334 24.746667 58.026667 37.12 119.04 37.12 182.613333 0 63.573333-12.373333 124.586667-37.12 182.613333-23.466667 56.32-57.173333 105.813333-100.266667 149.333334-43.52 43.093333-93.013333 76.8-149.333333 100.266666-58.026667 24.746667-119.04 37.12-182.613333 37.12-63.573333 0-124.586667-12.373333-182.613334-37.12-56.32-23.466667-105.813333-57.173333-149.333333-100.266666zM238.933333 469.333333c2.986667 0 5.546667 0.426667 8.533334 0.853334 2.56 0.426667 5.12 1.28 7.68 2.56 2.56 0.853333 5.12 2.133333 7.68 3.84l6.4 5.12 5.12 6.4c1.706667 2.56 2.986667 5.12 3.84 7.68 1.28 2.56 2.133333 5.12 2.56 7.68 0.426667 2.986667 0.853333 5.546667 0.853333 8.533333s-0.426667 5.546667-0.853333 8.533333c-0.426667 2.56-1.28 5.12-2.56 7.68-0.853333 2.56-2.133333 5.12-3.84 7.68l-5.12 6.4-6.4 5.12c-2.56 1.706667-5.12 2.986667-7.68 3.84-2.56 1.28-5.12 2.133333-7.68 2.56-2.986667 0.426667-5.546667 0.853333-8.533334 0.853334H134.656c4.096 36.778667 13.482667 72.405333 27.989333 106.666666a375.893333 375.893333 0 0 0 82.346667 122.026667 375.893333 375.893333 0 0 0 122.026667 82.346667c34.261333 14.506667 69.845333 23.893333 106.666666 27.946666V789.333333c0-2.986667 0.426667-5.546667 0.853334-8.533333 0.426667-2.56 1.28-5.12 2.56-7.68 0.853333-2.56 2.133333-5.12 3.84-7.68l5.12-6.4 6.4-5.12c2.56-1.706667 5.12-2.986667 7.68-3.84 2.56-1.28 5.12-2.133333 7.68-2.56 2.986667-0.426667 5.546667-0.853333 8.533333-0.853333s5.546667 0.426667 8.533333 0.853333c2.56 0.426667 5.12 1.28 7.68 2.56 2.56 0.853333 5.12 2.133333 7.68 3.84l6.4 5.12 5.12 6.4c1.706667 2.56 2.986667 5.12 3.84 7.68 1.28 2.56 2.133333 5.12 2.56 7.68 0.426667 2.986667 0.853333 5.546667 0.853334 8.533333v104.32a379.605333 379.605333 0 0 0 106.666666-27.946666 375.893333 375.893333 0 0 0 122.026667-82.346667 375.893333 375.893333 0 0 0 82.346667-122.026667c14.506667-34.261333 23.893333-69.888 27.946666-106.666666H772.266667c-2.986667 0-5.546667-0.426667-8.533334-0.853334a27.136 27.136 0 0 1-7.68-2.56 32.298667 32.298667 0 0 1-7.68-3.84l-6.4-5.12-5.12-6.4a32.298667 32.298667 0 0 1-3.84-7.68 27.136 27.136 0 0 1-2.56-7.68c-0.426667-2.986667-0.853333-5.546667-0.853333-8.533333s0.426667-5.546667 0.853333-8.533333c0.426667-2.56 1.28-5.12 2.56-7.68 0.853333-2.56 2.133333-5.12 3.84-7.68l5.12-6.4 6.4-5.12c2.56-1.706667 5.12-2.986667 7.68-3.84 2.56-1.28 5.12-2.133333 7.68-2.56 2.986667-0.426667 5.546667-0.853333 8.533334-0.853334h125.653333a379.605333 379.605333 0 0 0-27.946667-106.666666 375.893333 375.893333 0 0 0-82.346666-122.026667 375.893333 375.893333 0 0 0-122.026667-82.346667 379.562667 379.562667 0 0 0-106.666667-27.946666V234.666667c0 2.986667-0.426667 5.546667-0.853333 8.533333-0.426667 2.56-1.28 5.12-2.56 7.68-0.853333 2.56-2.133333 5.12-3.84 7.68l-5.12 6.4-6.4 5.12c-2.56 1.706667-5.12 2.986667-7.68 3.84-2.56 1.28-5.12 2.133333-7.68 2.56-2.986667 0.426667-5.546667 0.853333-8.533333 0.853333s-5.546667-0.426667-8.533334-0.853333a27.136 27.136 0 0 1-7.68-2.56 32.298667 32.298667 0 0 1-7.68-3.84l-6.4-5.12-5.12-6.4a32.298667 32.298667 0 0 1-3.84-7.68 27.136 27.136 0 0 1-2.56-7.68c-0.426667-2.986667-0.853333-5.546667-0.853333-8.533333V130.346667a379.562667 379.562667 0 0 0-106.666667 27.946666 375.893333 375.893333 0 0 0-122.026666 82.346667A375.893333 375.893333 0 0 0 162.56 362.666667a379.562667 379.562667 0 0 0-27.989333 106.666666h104.362666z m343.893334-114.773333c20.48 8.96 38.4 20.906667 54.186666 36.693333s27.733333 33.706667 36.693334 54.186667c8.96 21.333333 13.226667 43.52 13.226666 66.56s-4.266667 45.226667-13.226666 66.56c-8.96 20.48-20.906667 38.4-36.693334 54.186667s-33.706667 27.733333-54.186666 36.693333c-21.333333 8.96-43.52 13.226667-66.56 13.226667s-45.226667-4.266667-66.56-13.226667c-20.48-8.96-38.4-20.906667-54.186667-36.693333s-27.733333-33.706667-36.693333-54.186667c-8.96-21.333333-13.226667-43.52-13.226667-66.56s4.266667-45.226667 13.226667-66.56c8.96-20.48 20.906667-38.4 36.693333-54.186667s33.706667-27.733333 54.186667-36.693333c21.333333-8.96 43.52-13.226667 66.56-13.226667s45.226667 4.266667 66.56 13.226667z m-5.973334 218.026667c7.68-8.106667 13.653333-17.066667 17.92-27.306667 4.693333-10.666667 6.826667-21.76 6.826667-33.28s-2.133333-22.613333-6.826667-33.28c-4.266667-10.24-10.24-19.2-17.92-27.306667-8.106667-7.68-17.066667-13.653333-27.306666-17.92-10.666667-4.693333-21.76-6.826667-33.28-6.826666s-22.613333 2.133333-33.28 6.826666c-10.24 4.266667-19.2 10.24-27.306667 17.92-7.68 8.106667-13.653333 17.066667-17.92 27.306667-4.693333 10.666667-6.826667 21.76-6.826667 33.28s2.133333 22.613333 6.826667 33.28c4.266667 10.24 10.24 19.2 17.92 27.306667 8.106667 7.68 17.066667 13.653333 27.306667 17.92 10.666667 4.693333 21.76 6.826667 33.28 6.826666s22.613333-2.133333 33.28-6.826666c10.24-4.266667 19.2-10.24 27.306666-17.92z" p-id="8827"></path></svg>