<svg xmlns="http://www.w3.org/2000/svg" width="200" height="200" class="icon" viewBox="0 0 1024 1024"><path d="M512.041 143.36c220.774 0 404.685 158.925 443.187 368.64-38.502 209.715-222.413 368.64-443.187 368.64S107.356 721.715 68.854 512c38.502-209.715 222.413-368.64 443.187-368.64m359.301 368.599a368.845 368.845 0 0 0-359.22-286.31c-172.031 0-321.126 118.784-359.628 286.31 38.502 167.936 187.597 286.72 359.629 286.72s321.126-118.784 359.22-286.72M512 696.32c-101.58 0-184.32-82.74-184.32-184.32S410.42 327.68 512 327.68 696.32 410.42 696.32 512 613.58 696.32 512 696.32M614.4 512a102.4 102.4 0 0 0-204.8 0 102.4 102.4 0 0 0 204.8 0"/></svg>