<svg xmlns="http://www.w3.org/2000/svg" width="200" height="200" class="icon" viewBox="0 0 1024 1024"><path d="M85.76 901.12c-.427-2.56-.427-5.547-.427-8.107.427-2.986.854-5.546 1.707-8.533 11.947-43.947 20.48-77.653 25.173-101.12 1.28-8.107 2.56-14.933 2.987-20.053-14.507-23.894-26.88-47.36-36.693-71.68C54.613 634.453 42.667 574.72 42.667 512c0-63.573 12.373-124.587 37.12-182.613 23.466-56.32 57.173-105.814 100.266-149.334 43.52-43.093 93.014-76.8 149.334-100.266C387.413 55.04 448.427 42.667 512 42.667s124.587 12.373 182.613 37.12c56.32 23.466 105.814 57.173 149.334 100.266 43.093 43.52 76.8 93.014 100.266 149.334 24.747 58.026 37.12 119.04 37.12 182.613s-12.373 124.587-37.12 182.613c-23.466 56.32-57.173 105.814-100.266 149.334-43.52 43.093-93.014 76.8-149.334 100.266-58.026 24.747-119.04 37.12-182.613 37.12-62.72 0-122.453-11.946-179.627-35.413q-35.84-15.36-71.68-37.12c-5.12.427-11.946 1.707-20.053 2.987-23.467 4.693-57.173 13.226-101.12 25.173a42.24 42.24 0 0 1-23.04 0 28.6 28.6 0 0 1-7.68-2.987 37 37 0 0 1-6.827-4.266c-2.56-1.707-4.266-3.84-6.4-5.974-1.706-2.133-3.413-4.266-4.693-6.826a37.8 37.8 0 0 1-3.413-7.254c-.854-2.986-1.28-5.546-1.707-8.533m575.573-35.413a382.3 382.3 0 0 0 122.454-82.347c35.84-35.84 62.72-76.373 81.493-121.6Q896 590.08 896 512c0-52.053-10.24-101.973-30.293-149.333a382.3 382.3 0 0 0-82.347-122.454 371.7 371.7 0 0 0-121.6-81.493l-.427-.427A379.8 379.8 0 0 0 512 128c-52.053 0-101.973 10.24-149.333 30.293a382.3 382.3 0 0 0-122.454 82.347c-35.84 35.84-62.72 76.373-81.493 121.6A376.3 376.3 0 0 0 128 512c0 51.2 9.813 100.267 29.44 146.773q10.88 28.16 30.72 60.16a81.66 81.66 0 0 1 11.947 51.627q-.64 7.04-2.56 20.48c-.427 2.56-.854 4.267-.854 5.547-.426 1.28-.426 2.56-.853 3.413-2.133 9.813-4.693 22.187-8.107 36.267 14.08-3.414 26.454-5.974 36.267-8.107.853-.427 2.133-.427 3.413-.853 1.28 0 2.987-.427 5.547-.854q13.44-1.92 20.48-2.56a81.66 81.66 0 0 1 51.627 11.947c20.48 12.373 40.533 23.04 61.013 31.573A375.5 375.5 0 0 0 512 896c52.053 0 101.973-10.24 149.333-30.293M307.072 657.62q3.84-2.559 7.68-3.84 3.84-1.92 7.68-2.56c2.987-.426 5.547-.853 8.533-.853s5.547.427 8.534.853q3.84.64 7.68 2.56 3.84 1.281 7.68 3.84l6.4 5.12a210.22 210.22 0 0 0 150.613 62.72q43.52 0 83.2-16.64c25.6-11.093 48.213-26.026 67.84-45.653v-.427c1.707-1.706 4.267-3.413 6.4-5.12 2.133-1.706 4.693-2.986 7.253-3.84 2.56-1.28 5.547-2.133 8.107-2.56 2.56-.426 5.547-.853 8.533-.853 2.56 0 5.547.427 8.107.853s5.547 1.28 8.107 2.56c2.56.854 5.12 2.134 7.253 3.84q3.84 2.56 6.4 5.12c2.133 2.134 3.84 4.267 5.547 6.4l3.84 7.68 2.56 7.68c.426 2.987.853 5.547.853 8.534 0 2.56-.427 5.546-.853 8.106-.854 2.987-1.28 5.547-2.56 8.107-.854 2.56-2.56 5.12-3.84 7.253-1.707 2.56-3.414 4.694-5.547 6.4l.427.427a299.1 299.1 0 0 1-211.627 87.467c-40.533 0-78.933-7.68-116.053-23.467-35.84-15.36-67.414-36.693-95.147-64l-5.12-6.4a32.3 32.3 0 0 1-3.84-7.68 27.1 27.1 0 0 1-2.56-7.68c-.427-2.987-.853-5.547-.853-8.533s.426-5.547.853-8.534q.64-3.84 2.56-7.68 1.28-3.84 3.84-7.68l5.12-6.4z"/></svg>