<?xml version="1.0" standalone="no"?><!DOCTYPE svg PUBLIC "-//W3C//DTD SVG 1.1//EN" "http://www.w3.org/Graphics/SVG/1.1/DTD/svg11.dtd"><svg t="1705142710817" class="icon" viewBox="0 0 1024 1024" version="1.1" xmlns="http://www.w3.org/2000/svg" p-id="9094" xmlns:xlink="http://www.w3.org/1999/xlink" width="200" height="200"><path d="M85.76 901.12C85.333333 898.56 85.333333 895.573333 85.333333 893.013333c0.426667-2.986667 0.853333-5.546667 1.706667-8.533333 11.946667-43.946667 20.48-77.653333 25.173333-101.12 1.28-8.106667 2.56-14.933333 2.986667-20.053333-14.506667-23.893333-26.88-47.36-36.693333-71.68C54.613333 634.453333 42.666667 574.72 42.666667 512c0-63.573333 12.373333-124.586667 37.12-182.613333 23.466667-56.32 57.173333-105.813333 100.266666-149.333334 43.52-43.093333 93.013333-76.8 149.333334-100.266666C387.413333 55.04 448.426667 42.666667 512 42.666667c63.573333 0 124.586667 12.373333 182.613333 37.12 56.32 23.466667 105.813333 57.173333 149.333334 100.266666 43.093333 43.52 76.8 93.013333 100.266666 149.333334 24.746667 58.026667 37.12 119.04 37.12 182.613333 0 63.573333-12.373333 124.586667-37.12 182.613333-23.466667 56.32-57.173333 105.813333-100.266666 149.333334-43.52 43.093333-93.013333 76.8-149.333334 100.266666-58.026667 24.746667-119.04 37.12-182.613333 37.12-62.72 0-122.453333-11.946667-179.626667-35.413333-23.893333-10.24-47.786667-22.613333-71.68-37.12-5.12 0.426667-11.946667 1.706667-20.053333 2.986667-23.466667 4.693333-57.173333 13.226667-101.12 25.173333a42.24 42.24 0 0 1-23.04 0 28.586667 28.586667 0 0 1-7.68-2.986667 36.864 36.864 0 0 1-6.826667-4.266666c-2.56-1.706667-4.266667-3.84-6.4-5.973334-1.706667-2.133333-3.413333-4.266667-4.693333-6.826666a37.802667 37.802667 0 0 1-3.413333-7.253334c-0.853333-2.986667-1.28-5.546667-1.706667-8.533333z m575.573333-35.413333a382.336 382.336 0 0 0 122.453334-82.346667c35.84-35.84 62.72-76.373333 81.493333-121.6 20.48-47.786667 30.72-97.706667 30.72-149.76 0-52.053333-10.24-101.973333-30.293333-149.333333a382.336 382.336 0 0 0-82.346667-122.453334 371.712 371.712 0 0 0-121.6-81.493333l-0.426667-0.426667A379.818667 379.818667 0 0 0 512 128c-52.053333 0-101.973333 10.24-149.333333 30.293333a382.336 382.336 0 0 0-122.453334 82.346667c-35.84 35.84-62.72 76.373333-81.493333 121.6A376.32 376.32 0 0 0 128 512c0 51.2 9.813333 100.266667 29.44 146.773333 7.253333 18.773333 17.493333 38.826667 30.72 60.16a81.664 81.664 0 0 1 11.946667 51.626667c-0.426667 4.693333-1.28 11.52-2.56 20.48-0.426667 2.56-0.853333 4.266667-0.853334 5.546667-0.426667 1.28-0.426667 2.56-0.853333 3.413333-2.133333 9.813333-4.693333 22.186667-8.106667 36.266667 14.08-3.413333 26.453333-5.973333 36.266667-8.106667 0.853333-0.426667 2.133333-0.426667 3.413333-0.853333 1.28 0 2.986667-0.426667 5.546667-0.853334 8.96-1.28 15.786667-2.133333 20.48-2.56a81.664 81.664 0 0 1 51.626667 11.946667c20.48 12.373333 40.533333 23.04 61.013333 31.573333A375.466667 375.466667 0 0 0 512 896c52.053333 0 101.973333-10.24 149.333333-30.293333z m-354.261333-208.085334c2.56-1.706667 5.12-2.986667 7.68-3.84 2.56-1.28 5.12-2.133333 7.68-2.56 2.986667-0.426667 5.546667-0.853333 8.533333-0.853333s5.546667 0.426667 8.533334 0.853333c2.56 0.426667 5.12 1.28 7.68 2.56 2.56 0.853333 5.12 2.133333 7.68 3.84l6.4 5.12a210.218667 210.218667 0 0 0 150.613333 62.72c29.013333 0 56.746667-5.546667 83.2-16.64 25.6-11.093333 48.213333-26.026667 67.84-45.653333v-0.426667c1.706667-1.706667 4.266667-3.413333 6.4-5.12 2.133333-1.706667 4.693333-2.986667 7.253333-3.84 2.56-1.28 5.546667-2.133333 8.106667-2.56 2.56-0.426667 5.546667-0.853333 8.533333-0.853333 2.56 0 5.546667 0.426667 8.106667 0.853333s5.546667 1.28 8.106667 2.56c2.56 0.853333 5.12 2.133333 7.253333 3.84 2.56 1.706667 4.693333 3.413333 6.4 5.12 2.133333 2.133333 3.84 4.266667 5.546667 6.4l3.84 7.68 2.56 7.68c0.426667 2.986667 0.853333 5.546667 0.853333 8.533334 0 2.56-0.426667 5.546667-0.853333 8.106666-0.853333 2.986667-1.28 5.546667-2.56 8.106667-0.853333 2.56-2.56 5.12-3.84 7.253333-1.706667 2.56-3.413333 4.693333-5.546667 6.4l0.426667 0.426667a299.093333 299.093333 0 0 1-211.626667 87.466667c-40.533333 0-78.933333-7.68-116.053333-23.466667-35.84-15.36-67.413333-36.693333-95.146667-64l-5.12-6.4a32.298667 32.298667 0 0 1-3.84-7.68 27.136 27.136 0 0 1-2.56-7.68c-0.426667-2.986667-0.853333-5.546667-0.853333-8.533333s0.426667-5.546667 0.853333-8.533334c0.426667-2.56 1.28-5.12 2.56-7.68 0.853333-2.56 2.133333-5.12 3.84-7.68l5.12-6.4 6.4-5.12z" p-id="9095"></path></svg>