<svg xmlns="http://www.w3.org/2000/svg" width="200" height="200" class="icon" viewBox="0 0 1024 1024"><path d="M180.053 180.053c43.52-43.093 93.014-76.8 149.334-100.266C387.413 55.04 448.427 42.667 512 42.667s124.587 12.373 182.613 37.12c56.32 23.466 105.814 57.173 149.334 100.266 43.093 43.52 76.8 93.014 100.266 149.334 24.747 58.026 37.12 119.04 37.12 182.613s-12.373 124.587-37.12 182.613c-23.466 56.32-57.173 105.814-100.266 149.334-43.52 43.093-93.014 76.8-149.334 100.266-58.026 24.747-119.04 37.12-182.613 37.12s-124.587-12.373-182.613-37.12c-56.32-23.466-105.814-57.173-149.334-100.266-43.093-43.52-76.8-93.014-100.266-149.334A461.2 461.2 0 0 1 42.667 512c0-63.573 12.373-124.587 37.12-182.613 23.466-56.32 57.173-105.814 100.266-149.334M356.181 717.44l.982-.128q3.84-.64 7.68-2.56 3.84-1.28 7.68-3.84l6.4-5.12 133.12-133.12 133.12 133.12 6.4 5.12q3.84 2.56 7.68 3.84 3.84 1.92 7.68 2.56l1.024.128c2.56.384 4.864.725 7.552.725 2.645 0 4.949-.341 7.509-.725l1.024-.128q3.84-.64 7.68-2.56 3.84-1.28 7.68-3.84l6.4-5.12 5.12-6.4q2.56-3.84 3.84-7.68a27.1 27.1 0 0 0 2.688-8.704c.384-2.56.683-4.864.683-7.51 0-2.687-.299-4.991-.683-7.551l-.17-.982a27.1 27.1 0 0 0-2.56-7.68 32.3 32.3 0 0 0-3.84-7.68l-5.12-6.4-133.12-133.12 133.12-133.12 5.12-6.4q2.559-3.84 3.84-7.68a27.1 27.1 0 0 0 2.73-8.704c.341-2.56.683-4.864.683-7.509a50.3 50.3 0 0 0-.854-8.533 27.1 27.1 0 0 0-2.56-7.68 32.3 32.3 0 0 0-3.84-7.68l-5.12-6.4c-4.266-3.84-8.533-6.827-14.08-8.96a42.5 42.5 0 0 0-16.213-3.414c-5.547 0-11.093 1.28-16.213 3.414-5.547 2.133-9.814 5.12-14.08 8.96l-133.12 133.12-133.12-133.12-6.4-5.12a32.3 32.3 0 0 0-7.68-3.84 27.1 27.1 0 0 0-8.662-2.731c-2.56-.384-4.864-.683-7.552-.683-2.645 0-4.949.299-7.509.683l-1.024.17q-3.84.64-7.68 2.56-3.84 1.281-7.68 3.84l-6.4 5.12-5.12 6.4q-2.56 3.84-3.84 7.68a27.1 27.1 0 0 0-2.688 8.662c-.384 2.56-.725 4.864-.725 7.552a50.4 50.4 0 0 0 .853 8.533q.64 3.84 2.56 7.68 1.28 3.84 3.84 7.68l5.12 6.4 133.12 133.12-133.12 133.12c-3.84 4.267-6.827 8.534-8.96 14.08-2.133 5.12-3.413 10.667-3.413 16.214s1.28 11.093 3.413 16.213c2.133 5.547 5.12 9.813 8.96 14.08l6.4 5.12q3.84 2.56 7.68 3.84 3.84 1.92 7.68 2.56l1.024.128c2.56.384 4.864.725 7.51.725 2.687 0 4.991-.341 7.551-.725"/></svg>