<?xml version="1.0" standalone="no"?><!DOCTYPE svg PUBLIC "-//W3C//DTD SVG 1.1//EN" "http://www.w3.org/Graphics/SVG/1.1/DTD/svg11.dtd"><svg t="1705143690231" class="icon" viewBox="0 0 1024 1024" version="1.1" xmlns="http://www.w3.org/2000/svg" p-id="8288" xmlns:xlink="http://www.w3.org/1999/xlink" width="200" height="200"><path d="M180.053333 180.053333c43.52-43.093333 93.013333-76.8 149.333334-100.266666C387.413333 55.04 448.426667 42.666667 512 42.666667c63.573333 0 124.586667 12.373333 182.613333 37.12 56.32 23.466667 105.813333 57.173333 149.333334 100.266666 43.093333 43.52 76.8 93.013333 100.266666 149.333334 24.746667 58.026667 37.12 119.04 37.12 182.613333 0 63.573333-12.373333 124.586667-37.12 182.613333-23.466667 56.32-57.173333 105.813333-100.266666 149.333334-43.52 43.093333-93.013333 76.8-149.333334 100.266666-58.026667 24.746667-119.04 37.12-182.613333 37.12-63.573333 0-124.586667-12.373333-182.613333-37.12-56.32-23.466667-105.813333-57.173333-149.333334-100.266666-43.093333-43.52-76.8-93.013333-100.266666-149.333334A461.226667 461.226667 0 0 1 42.666667 512c0-63.573333 12.373333-124.586667 37.12-182.613333 23.466667-56.32 57.173333-105.813333 100.266666-149.333334z m176.128 537.386667l0.981334-0.128c2.56-0.426667 5.12-1.28 7.68-2.56 2.56-0.853333 5.12-2.133333 7.68-3.84l6.4-5.12 133.12-133.12 133.12 133.12 6.4 5.12c2.56 1.706667 5.12 2.986667 7.68 3.84 2.56 1.28 5.12 2.133333 7.68 2.56l1.024 0.128c2.56 0.384 4.864 0.725333 7.552 0.725333 2.645333 0 4.949333-0.341333 7.509333-0.725333l1.024-0.128c2.56-0.426667 5.12-1.28 7.68-2.56 2.56-0.853333 5.12-2.133333 7.68-3.84l6.4-5.12 5.12-6.4c1.706667-2.56 2.986667-5.12 3.84-7.68a27.136 27.136 0 0 0 2.688-8.704c0.384-2.56 0.682667-4.864 0.682667-7.509333 0-2.688-0.298667-4.992-0.682667-7.552l-0.170667-0.981334a27.136 27.136 0 0 0-2.56-7.68 32.298667 32.298667 0 0 0-3.84-7.68l-5.12-6.4-133.12-133.12 133.12-133.12 5.12-6.4c1.706667-2.56 2.986667-5.12 3.84-7.68a27.136 27.136 0 0 0 2.730667-8.704c0.341333-2.56 0.682667-4.864 0.682667-7.509333a50.304 50.304 0 0 0-0.853334-8.533333 27.136 27.136 0 0 0-2.56-7.68 32.298667 32.298667 0 0 0-3.84-7.68l-5.12-6.4c-4.266667-3.84-8.533333-6.826667-14.08-8.96a42.453333 42.453333 0 0 0-16.213333-3.413334c-5.546667 0-11.093333 1.28-16.213333 3.413334-5.546667 2.133333-9.813333 5.12-14.08 8.96l-133.12 133.12-133.12-133.12-6.4-5.12a32.298667 32.298667 0 0 0-7.68-3.84 27.136 27.136 0 0 0-8.661334-2.730667c-2.56-0.384-4.864-0.682667-7.552-0.682667-2.645333 0-4.949333 0.298667-7.509333 0.682667l-1.024 0.170667c-2.56 0.426667-5.12 1.28-7.68 2.56-2.56 0.853333-5.12 2.133333-7.68 3.84l-6.4 5.12-5.12 6.4c-1.706667 2.56-2.986667 5.12-3.84 7.68a27.136 27.136 0 0 0-2.688 8.661333c-0.384 2.56-0.725333 4.864-0.725333 7.552a50.432 50.432 0 0 0 0.853333 8.533333c0.426667 2.56 1.28 5.12 2.56 7.68 0.853333 2.56 2.133333 5.12 3.84 7.68l5.12 6.4 133.12 133.12-133.12 133.12c-3.84 4.266667-6.826667 8.533333-8.96 14.08-2.133333 5.12-3.413333 10.666667-3.413333 16.213334s1.28 11.093333 3.413333 16.213333c2.133333 5.546667 5.12 9.813333 8.96 14.08l6.4 5.12c2.56 1.706667 5.12 2.986667 7.68 3.84 2.56 1.28 5.12 2.133333 7.68 2.56l1.024 0.128c2.56 0.384 4.864 0.725333 7.509333 0.725333 2.688 0 4.992-0.341333 7.552-0.725333z" p-id="8289"></path></svg>