<svg xmlns="http://www.w3.org/2000/svg" width="200" height="200" class="icon" viewBox="0 0 1024 1024"><path d="M280.576 276.89c24.576-36.455 81.92-112.23 158.925-154.01 10.24-5.734 22.118-11.06 33.587-15.565A232.7 232.7 0 0 1 552.96 92.16c2.867 0 5.325.41 8.192.82q3.686.614 7.373 2.457 3.686 1.229 7.373 3.686l6.144 4.915 4.915 6.144q2.457 3.687 3.686 7.373 1.843 3.687 2.458 7.373c.41 2.867.819 5.325.819 8.192V870.4c0 2.867-.41 5.325-.82 8.192q-.614 3.686-2.457 7.373-1.229 3.686-3.686 7.373l-4.915 6.144-6.144 4.915q-3.687 2.457-7.373 3.686-3.687 1.843-7.373 2.458c-2.867.41-5.325.819-8.192.819-24.166 0-50.79-4.915-72.5-12.698-16.793-5.734-34.815-14.336-49.56-23.347-72.91-43.008-126.977-115.917-150.324-151.552H184.32c-45.056 0-81.92-36.864-81.92-81.92V358.81c0-45.056 36.864-81.92 81.92-81.92zM184.32 641.843h118.784c3.686 0 7.373.41 10.65 1.229 3.686 1.229 6.963 2.458 9.83 4.506 3.277 1.638 6.144 3.686 8.602 6.553 2.457 2.458 4.915 5.325 6.553 8.602 0 0 53.658 94.617 133.94 142.131 11.878 6.963 22.527 12.288 34.815 16.384 1.639.82 2.868 1.229 4.506 1.638V180.634c-3.277.819-6.554 2.048-9.83 3.276-8.602 3.277-15.565 6.554-23.757 11.06-83.149 45.056-139.674 143.36-139.674 143.36-2.048 3.276-4.096 5.734-6.553 8.601-2.458 2.458-5.325 4.506-8.602 6.554-3.277 1.638-6.554 2.867-9.83 4.096-3.687.819-6.964 1.229-10.65 1.229H184.32zm748.954-200.58q-1.23 3.685-3.687 7.372l-4.915 6.144-57.754 57.753 57.754 57.754 4.915 6.144q2.458 3.686 3.687 7.373 1.843 3.686 2.457 7.373c.41 2.867.82 5.324.82 8.192s-.41 5.324-.82 8.192q-.615 3.686-2.457 7.372-1.23 3.687-3.687 7.373l-4.915 6.144-6.144 4.915q-3.686 2.458-7.373 3.687-3.686 1.843-7.373 2.457c-2.867.41-5.324.82-8.192.82s-5.324-.41-8.192-.82a26 26 0 0 1-7.372-2.457 31 31 0 0 1-7.373-3.687l-6.144-4.915-57.754-57.753-57.753 57.753-6.144 4.915q-3.687 2.458-7.373 3.687-3.687 1.843-7.373 2.457c-2.867.41-5.325.82-8.192.82s-5.325-.41-8.192-.82a26 26 0 0 1-7.373-2.457 31 31 0 0 1-7.373-3.687l-6.144-4.915-4.915-6.144a31 31 0 0 1-3.686-7.373 26 26 0 0 1-2.458-7.372c-.41-2.868-.819-5.325-.819-8.192s.41-5.325.82-8.192q.613-3.687 2.457-7.373 1.229-3.687 3.686-7.373l4.915-6.144 57.754-57.754-57.754-57.753-4.915-6.144a31 31 0 0 1-3.686-7.373 26 26 0 0 1-2.458-7.373c-.41-2.867-.819-5.325-.819-8.192s.41-5.325.82-8.192q.613-3.686 2.457-7.373 1.229-3.686 3.686-7.372l4.915-6.144 6.144-4.916q3.687-2.457 7.373-3.686 3.686-1.843 7.373-2.458c2.867-.41 5.325-.819 8.192-.819s5.325.41 8.192.82q3.686.614 7.373 2.457 3.686 1.23 7.373 3.686l6.144 4.916 57.753 57.753 57.754-57.753 6.144-4.916q3.686-2.457 7.373-3.686 3.686-1.843 7.372-2.458c2.868-.41 5.325-.819 8.192-.819s5.325.41 8.192.82q3.687.614 7.373 2.457 3.686 1.23 7.373 3.686l6.144 4.916 4.915 6.144q2.458 3.686 3.687 7.372 1.843 3.687 2.457 7.373c.41 2.867.82 5.325.82 8.192s-.41 5.325-.82 8.192q-.615 3.687-2.457 7.373"/></svg>