<?xml version="1.0" standalone="no"?><!DOCTYPE svg PUBLIC "-//W3C//DTD SVG 1.1//EN" "http://www.w3.org/Graphics/SVG/1.1/DTD/svg11.dtd"><svg t="1705142946996" class="icon" viewBox="0 0 1024 1024" version="1.1" xmlns="http://www.w3.org/2000/svg" p-id="9630" xmlns:xlink="http://www.w3.org/1999/xlink" width="200" height="200"><path d="M280.576 276.8896c24.576-36.4544 81.92-112.2304 158.9248-154.0096 10.24-5.7344 22.1184-11.0592 33.5872-15.5648A232.6528 232.6528 0 0 1 552.96 92.16c2.8672 0 5.3248 0.4096 8.192 0.8192 2.4576 0.4096 4.9152 1.2288 7.3728 2.4576 2.4576 0.8192 4.9152 2.048 7.3728 3.6864l6.144 4.9152 4.9152 6.144c1.6384 2.4576 2.8672 4.9152 3.6864 7.3728 1.2288 2.4576 2.048 4.9152 2.4576 7.3728 0.4096 2.8672 0.8192 5.3248 0.8192 8.192v737.28c0 2.8672-0.4096 5.3248-0.8192 8.192-0.4096 2.4576-1.2288 4.9152-2.4576 7.3728-0.8192 2.4576-2.048 4.9152-3.6864 7.3728l-4.9152 6.144-6.144 4.9152c-2.4576 1.6384-4.9152 2.8672-7.3728 3.6864-2.4576 1.2288-4.9152 2.048-7.3728 2.4576-2.8672 0.4096-5.3248 0.8192-8.192 0.8192-24.1664 0-50.7904-4.9152-72.4992-12.6976-16.7936-5.7344-34.816-14.336-49.5616-23.3472-72.9088-43.008-126.976-115.9168-150.3232-151.552H184.32c-45.056 0-81.92-36.864-81.92-81.92V358.8096c0-45.056 36.864-81.92 81.92-81.92h96.256zM184.32 641.8432h118.784c3.6864 0 7.3728 0.4096 10.6496 1.2288 3.6864 1.2288 6.9632 2.4576 9.8304 4.5056 3.2768 1.6384 6.144 3.6864 8.6016 6.5536 2.4576 2.4576 4.9152 5.3248 6.5536 8.6016 0 0 53.6576 94.6176 133.9392 142.1312 11.8784 6.9632 22.528 12.288 34.816 16.384 1.6384 0.8192 2.8672 1.2288 4.5056 1.6384V180.6336c-3.2768 0.8192-6.5536 2.048-9.8304 3.2768-8.6016 3.2768-15.5648 6.5536-23.7568 11.0592-83.1488 45.056-139.6736 143.36-139.6736 143.36-2.048 3.2768-4.096 5.7344-6.5536 8.6016-2.4576 2.4576-5.3248 4.5056-8.6016 6.5536-3.2768 1.6384-6.5536 2.8672-9.8304 4.096-3.6864 0.8192-6.9632 1.2288-10.6496 1.2288H184.32v283.0336z m748.9536-200.58112c-0.8192 2.4576-2.048 4.9152-3.6864 7.3728l-4.9152 6.144-57.7536 57.7536 57.7536 57.7536 4.9152 6.144c1.6384 2.4576 2.8672 4.9152 3.6864 7.3728 1.2288 2.4576 2.048 4.9152 2.4576 7.3728 0.4096 2.8672 0.8192 5.3248 0.8192 8.192s-0.4096 5.3248-0.8192 8.192c-0.4096 2.4576-1.2288 4.9152-2.4576 7.3728-0.8192 2.4576-2.048 4.9152-3.6864 7.3728l-4.9152 6.144-6.144 4.9152c-2.4576 1.6384-4.9152 2.8672-7.3728 3.6864-2.4576 1.2288-4.9152 2.048-7.3728 2.4576-2.8672 0.4096-5.3248 0.8192-8.192 0.8192s-5.3248-0.4096-8.192-0.8192a26.05056 26.05056 0 0 1-7.3728-2.4576 31.00672 31.00672 0 0 1-7.3728-3.6864l-6.144-4.9152-57.7536-57.7536-57.7536 57.7536-6.144 4.9152c-2.4576 1.6384-4.9152 2.8672-7.3728 3.6864-2.4576 1.2288-4.9152 2.048-7.3728 2.4576-2.8672 0.4096-5.3248 0.8192-8.192 0.8192s-5.3248-0.4096-8.192-0.8192a26.05056 26.05056 0 0 1-7.3728-2.4576 31.00672 31.00672 0 0 1-7.3728-3.6864l-6.144-4.9152-4.9152-6.144a31.00672 31.00672 0 0 1-3.6864-7.3728 26.05056 26.05056 0 0 1-2.4576-7.3728c-0.4096-2.8672-0.8192-5.3248-0.8192-8.192s0.4096-5.3248 0.8192-8.192c0.4096-2.4576 1.2288-4.9152 2.4576-7.3728 0.8192-2.4576 2.048-4.9152 3.6864-7.3728l4.9152-6.144 57.7536-57.7536-57.7536-57.7536-4.9152-6.144a31.00672 31.00672 0 0 1-3.6864-7.3728 26.05056 26.05056 0 0 1-2.4576-7.3728c-0.4096-2.8672-0.8192-5.3248-0.8192-8.192s0.4096-5.3248 0.8192-8.192c0.4096-2.4576 1.2288-4.9152 2.4576-7.3728 0.8192-2.4576 2.048-4.9152 3.6864-7.3728l4.9152-6.144 6.144-4.9152c2.4576-1.6384 4.9152-2.8672 7.3728-3.6864 2.4576-1.2288 4.9152-2.048 7.3728-2.4576 2.8672-0.4096 5.3248-0.8192 8.192-0.8192s5.3248 0.4096 8.192 0.8192c2.4576 0.4096 4.9152 1.2288 7.3728 2.4576 2.4576 0.8192 4.9152 2.048 7.3728 3.6864l6.144 4.9152 57.7536 57.7536 57.7536-57.7536 6.144-4.9152c2.4576-1.6384 4.9152-2.8672 7.3728-3.6864 2.4576-1.2288 4.9152-2.048 7.3728-2.4576 2.8672-0.4096 5.3248-0.8192 8.192-0.8192s5.3248 0.4096 8.192 0.8192c2.4576 0.4096 4.9152 1.2288 7.3728 2.4576 2.4576 0.8192 4.9152 2.048 7.3728 3.6864l6.144 4.9152 4.9152 6.144c1.6384 2.4576 2.8672 4.9152 3.6864 7.3728 1.2288 2.4576 2.048 4.9152 2.4576 7.3728 0.4096 2.8672 0.8192 5.3248 0.8192 8.192s-0.4096 5.3248-0.8192 8.192c-0.4096 2.4576-1.2288 4.9152-2.4576 7.3728z" p-id="9631"></path></svg>