<?xml version="1.0" standalone="no"?><!DOCTYPE svg PUBLIC "-//W3C//DTD SVG 1.1//EN" "http://www.w3.org/Graphics/SVG/1.1/DTD/svg11.dtd"><svg t="1705143241652" class="icon" viewBox="0 0 1024 1024" version="1.1" xmlns="http://www.w3.org/2000/svg" p-id="10568" xmlns:xlink="http://www.w3.org/1999/xlink" width="200" height="200"><path d="M307.2 348.16a204.8 204.8 0 0 1 409.6 0v327.68a204.8 204.8 0 0 1-204.8 204.8 40.96 40.96 0 1 0 0 81.92 286.76096 286.76096 0 0 0 284.30336-249.36448 204.88192 204.88192 0 0 0 0-402.35008 286.76096 286.76096 0 0 0-568.60672 0A204.88192 204.88192 0 0 0 266.24 716.8a40.96 40.96 0 0 0 40.96-40.96v-327.68z m-81.92 279.7568a122.92096 122.92096 0 0 1 0-231.8336v231.8336z m573.44-231.8336a122.92096 122.92096 0 0 1 0 231.8336V396.0832z" fill="#62666B" p-id="10569"></path></svg>