<?xml version="1.0" standalone="no"?><!DOCTYPE svg PUBLIC "-//W3C//DTD SVG 1.1//EN" "http://www.w3.org/Graphics/SVG/1.1/DTD/svg11.dtd"><svg t="1705142657017" class="icon" viewBox="0 0 1024 1024" version="1.1" xmlns="http://www.w3.org/2000/svg" p-id="8960" xmlns:xlink="http://www.w3.org/1999/xlink" width="200" height="200"><path d="M400.9984 390.7584l6.144-4.9152c2.4576-1.6384 4.9152-2.8672 7.3728-3.6864 2.4576-1.2288 4.9152-2.048 7.3728-2.4576 2.8672-0.4096 5.3248-0.8192 8.192-0.8192h81.92c2.8672 0 5.3248 0.4096 8.192 0.8192 2.4576 0.4096 4.9152 1.2288 7.3728 2.4576 2.4576 0.8192 4.9152 2.048 7.3728 3.6864l6.144 4.9152 4.9152 6.144c1.6384 2.4576 2.8672 4.9152 3.6864 7.3728 1.2288 2.4576 2.048 4.9152 2.4576 7.3728 0.4096 2.8672 0.8192 5.3248 0.8192 8.192s-0.4096 5.3248-0.8192 8.192c-0.4096 2.4576-1.2288 4.9152-2.4576 7.3728-0.8192 2.4576-2.048 4.9152-3.6864 7.3728l-4.9152 6.144-6.144 4.9152c-2.4576 1.6384-4.9152 2.8672-7.3728 3.6864-2.4576 1.2288-4.9152 2.048-7.3728 2.4576-2.8672 0.4096-5.3248 0.8192-8.192 0.8192h-81.92c-2.8672 0-5.3248-0.4096-8.192-0.8192a26.05056 26.05056 0 0 1-7.3728-2.4576 31.00672 31.00672 0 0 1-7.3728-3.6864l-6.144-4.9152-4.9152-6.144a31.00672 31.00672 0 0 1-3.6864-7.3728 26.05056 26.05056 0 0 1-2.4576-7.3728c-0.4096-2.8672-0.8192-5.3248-0.8192-8.192s0.4096-5.3248 0.8192-8.192c0.4096-2.4576 1.2288-4.9152 2.4576-7.3728 0.8192-2.4576 2.048-4.9152 3.6864-7.3728l4.9152-6.144z m520.192-58.9824c0.4096 1.6384 0.4096 3.2768 0.4096 4.9152v451.7888c0 2.8672-0.4096 5.3248-0.8192 8.192-0.4096 2.4576-1.2288 4.9152-2.4576 7.3728-0.8192 2.4576-2.048 4.9152-3.6864 7.3728l-4.9152 6.144-6.144 4.9152c-2.4576 1.6384-4.9152 2.8672-7.3728 3.6864-2.4576 1.2288-4.9152 2.048-7.3728 2.4576-2.8672 0.4096-5.3248 0.8192-8.192 0.8192H307.2c-2.8672 0-5.3248-0.4096-8.192-0.8192a26.05056 26.05056 0 0 1-7.3728-2.4576 31.00672 31.00672 0 0 1-7.3728-3.6864l-6.144-4.9152-4.9152-6.144a31.00672 31.00672 0 0 1-3.6864-7.3728 26.05056 26.05056 0 0 1-2.4576-7.3728c-0.4096-2.8672-0.8192-5.3248-0.8192-8.192v-696.32c0-2.8672 0.4096-5.3248 0.8192-8.192 0.4096-2.4576 1.2288-4.9152 2.4576-7.3728 0.8192-2.4576 2.048-4.9152 3.6864-7.3728l4.9152-6.144 6.144-4.9152c2.4576-1.6384 4.9152-2.8672 7.3728-3.6864 2.4576-1.2288 4.9152-2.048 7.3728-2.4576 2.8672-0.4096 5.3248-0.8192 8.192-0.8192h349.7984c2.4576 0 4.5056 0.4096 6.9632 0.8192 0.8192 0.4096 2.048 0.4096 2.8672 0.8192 2.048 0.4096 3.6864 1.2288 5.7344 2.048 2.4576 1.2288 4.9152 2.4576 6.9632 4.096l2.4576 2.4576 2.4576 1.6384 0.4096 0.8192c0.4096 0 0.4096 0.4096 0.8192 0.4096l225.28 245.76c1.2288 1.2288 2.4576 2.8672 3.2768 4.5056l0.4096 0.4096c0.8192 1.6384 2.048 2.8672 2.4576 4.5056 0.8192 1.6384 1.6384 2.8672 2.048 4.5056 0 0.4096 0 0.4096 0.4096 0.8192l1.2288 4.096c0 0.8192 0.4096 2.048 0.4096 2.8672zM407.1424 549.6832c2.4576-1.6384 4.9152-2.8672 7.3728-3.6864 2.4576-1.2288 4.9152-2.048 7.3728-2.4576 2.8672-0.4096 5.3248-0.8192 8.192-0.8192h245.76c2.8672 0 5.3248 0.4096 8.192 0.8192 2.4576 0.4096 4.9152 1.2288 7.3728 2.4576 2.4576 0.8192 4.9152 2.048 7.3728 3.6864l6.144 4.9152 4.9152 6.144c1.6384 2.4576 2.8672 4.9152 3.6864 7.3728 1.2288 2.4576 2.048 4.9152 2.4576 7.3728 0.4096 2.8672 0.8192 5.3248 0.8192 8.192s-0.4096 5.3248-0.8192 8.192c-0.4096 2.4576-1.2288 4.9152-2.4576 7.3728-0.8192 2.4576-2.048 4.9152-3.6864 7.3728l-4.9152 6.144-6.144 4.9152c-2.4576 1.6384-4.9152 2.8672-7.3728 3.6864-2.4576 1.2288-4.9152 2.048-7.3728 2.4576-2.8672 0.4096-5.3248 0.8192-8.192 0.8192h-245.76c-2.8672 0-5.3248-0.4096-8.192-0.8192a26.05056 26.05056 0 0 1-7.3728-2.4576 31.00672 31.00672 0 0 1-7.3728-3.6864l-6.144-4.9152-4.9152-6.144a31.00672 31.00672 0 0 1-3.6864-7.3728 26.05056 26.05056 0 0 1-2.4576-7.3728c-0.4096-2.8672-0.8192-5.3248-0.8192-8.192s0.4096-5.3248 0.8192-8.192c0.4096-2.4576 1.2288-4.9152 2.4576-7.3728 0.8192-2.4576 2.048-4.9152 3.6864-7.3728l4.9152-6.144 6.144-4.9152zM225.28 419.84v450.56h389.12c2.8672 0 5.3248 0.4096 8.192 0.8192 2.4576 0.4096 4.9152 1.2288 7.3728 2.4576 2.4576 0.8192 4.9152 2.048 7.3728 3.6864 2.048 1.2288 4.096 3.2768 6.144 4.9152 1.6384 2.048 3.6864 4.096 4.9152 6.144 1.6384 2.4576 2.8672 4.9152 3.6864 7.3728 1.2288 2.4576 2.048 4.9152 2.4576 7.3728 0.4096 2.8672 0.8192 5.3248 0.8192 8.192s-0.4096 5.3248-0.8192 8.192c-0.4096 2.4576-1.2288 4.9152-2.4576 7.3728-0.8192 2.4576-2.048 4.9152-3.6864 7.3728-1.2288 2.048-3.2768 4.096-4.9152 6.144l-6.144 4.9152c-2.4576 1.6384-4.9152 2.8672-7.3728 3.6864-2.4576 1.2288-4.9152 2.048-7.3728 2.4576-2.8672 0.4096-5.3248 0.8192-8.192 0.8192H184.32c-2.8672 0-5.3248-0.4096-8.192-0.8192a26.05056 26.05056 0 0 1-7.3728-2.4576 31.00672 31.00672 0 0 1-7.3728-3.6864l-6.144-4.9152-4.9152-6.144a31.00672 31.00672 0 0 1-3.6864-7.3728 26.05056 26.05056 0 0 1-2.4576-7.3728c-0.4096-2.8672-0.8192-5.3248-0.8192-8.192v-491.52c0-2.8672 0.4096-5.3248 0.8192-8.192 0.4096-2.4576 1.2288-4.9152 2.4576-7.3728 0.8192-2.4576 2.048-4.9152 3.6864-7.3728l4.9152-6.144 6.144-4.9152c2.4576-1.6384 4.9152-2.8672 7.3728-3.6864 2.4576-1.2288 4.9152-2.048 7.3728-2.4576 2.8672-0.4096 5.3248-0.8192 8.192-0.8192s5.3248 0.4096 8.192 0.8192c2.4576 0.4096 4.9152 1.2288 7.3728 2.4576 2.4576 0.8192 4.9152 2.048 7.3728 3.6864l6.144 4.9152 4.9152 6.144c1.6384 2.4576 2.8672 4.9152 3.6864 7.3728 1.2288 2.4576 2.048 4.9152 2.4576 7.3728 0.4096 2.8672 0.8192 5.3248 0.8192 8.192z m389.9392-73.728c-0.4096-2.8672-0.8192-5.3248-0.8192-8.192v-204.8H348.16v614.4h491.52v-368.64h-184.32c-2.8672 0-5.3248-0.4096-8.192-0.8192a26.05056 26.05056 0 0 1-7.3728-2.4576 31.00672 31.00672 0 0 1-7.3728-3.6864l-6.144-4.9152-4.9152-6.144a31.00672 31.00672 0 0 1-3.6864-7.3728 26.05056 26.05056 0 0 1-2.4576-7.3728z m172.032-49.152L696.32 197.8368v99.1232h90.9312z" p-id="8961"></path></svg>