<svg xmlns="http://www.w3.org/2000/svg" width="200" height="200" class="icon" viewBox="0 0 1024 1024"><path d="m400.998 390.758 6.144-4.915q3.687-2.457 7.373-3.686 3.687-1.843 7.373-2.458c2.867-.41 5.325-.819 8.192-.819H512c2.867 0 5.325.41 8.192.82q3.686.613 7.373 2.457 3.686 1.229 7.373 3.686l6.144 4.915 4.915 6.144q2.457 3.687 3.686 7.373 1.843 3.686 2.458 7.373c.41 2.867.819 5.325.819 8.192s-.41 5.325-.82 8.192q-.614 3.687-2.457 7.373-1.229 3.686-3.686 7.373l-4.915 6.144-6.144 4.915q-3.687 2.457-7.373 3.686-3.687 1.843-7.373 2.458c-2.867.41-5.325.819-8.192.819h-81.92c-2.867 0-5.325-.41-8.192-.82a26 26 0 0 1-7.373-2.457 31 31 0 0 1-7.373-3.686l-6.144-4.915-4.915-6.144a31 31 0 0 1-3.686-7.373 26 26 0 0 1-2.458-7.373c-.41-2.867-.819-5.325-.819-8.192s.41-5.325.82-8.192q.614-3.687 2.457-7.373 1.229-3.686 3.686-7.373zm520.192-58.982c.41 1.638.41 3.277.41 4.915V788.48c0 2.867-.41 5.325-.82 8.192q-.614 3.686-2.457 7.373-1.229 3.686-3.686 7.373l-4.915 6.144-6.144 4.915q-3.687 2.457-7.373 3.686-3.687 1.843-7.373 2.458c-2.867.41-5.325.819-8.192.819H307.2c-2.867 0-5.325-.41-8.192-.82a26 26 0 0 1-7.373-2.457 31 31 0 0 1-7.373-3.686l-6.144-4.915-4.915-6.144a31 31 0 0 1-3.686-7.373 26 26 0 0 1-2.458-7.373c-.41-2.867-.819-5.325-.819-8.192V92.16c0-2.867.41-5.325.82-8.192q.614-3.686 2.457-7.373 1.229-3.686 3.686-7.373l4.915-6.144 6.144-4.915q3.687-2.457 7.373-3.686 3.687-1.843 7.373-2.458c2.867-.41 5.325-.819 8.192-.819h349.798c2.458 0 4.506.41 6.964.82.819.409 2.048.409 2.867.818 2.048.41 3.686 1.23 5.734 2.048 2.458 1.23 4.915 2.458 6.963 4.096l2.458 2.458 2.458 1.638.41.82c.409 0 .409.41.818.41l225.28 245.76c1.23 1.228 2.458 2.866 3.277 4.505l.41.41c.819 1.638 2.048 2.867 2.457 4.505.82 1.638 1.639 2.867 2.048 4.506 0 .41 0 .41.41.819l1.229 4.096c0 .819.41 2.048.41 2.867M407.142 549.683q3.687-2.457 7.373-3.686 3.687-1.843 7.373-2.458c2.867-.41 5.325-.819 8.192-.819h245.76c2.867 0 5.325.41 8.192.82q3.686.614 7.373 2.457 3.686 1.229 7.373 3.686l6.144 4.915 4.915 6.144q2.457 3.687 3.686 7.373 1.843 3.686 2.458 7.373c.41 2.867.819 5.325.819 8.192s-.41 5.325-.82 8.192q-.613 3.687-2.457 7.373-1.229 3.686-3.686 7.373l-4.915 6.144-6.144 4.915q-3.687 2.457-7.373 3.686-3.686 1.843-7.373 2.458c-2.867.41-5.325.819-8.192.819H430.08c-2.867 0-5.325-.41-8.192-.82a26 26 0 0 1-7.373-2.457 31 31 0 0 1-7.373-3.686l-6.144-4.915-4.915-6.144a31 31 0 0 1-3.686-7.373 26 26 0 0 1-2.458-7.373c-.41-2.867-.819-5.325-.819-8.192s.41-5.325.82-8.192q.614-3.687 2.457-7.373 1.229-3.686 3.686-7.373l4.915-6.144zM225.28 419.84V870.4H614.4c2.867 0 5.325.41 8.192.82q3.686.613 7.373 2.457 3.686 1.229 7.373 3.686c2.048 1.229 4.096 3.277 6.144 4.915 1.638 2.048 3.686 4.096 4.915 6.144q2.457 3.687 3.686 7.373 1.843 3.686 2.458 7.373c.41 2.867.819 5.325.819 8.192s-.41 5.325-.82 8.192q-.613 3.686-2.457 7.373-1.229 3.686-3.686 7.373c-1.229 2.048-3.277 4.096-4.915 6.144l-6.144 4.915q-3.687 2.457-7.373 3.686-3.687 1.843-7.373 2.458c-2.867.41-5.325.819-8.192.819H184.32c-2.867 0-5.325-.41-8.192-.82a26 26 0 0 1-7.373-2.457 31 31 0 0 1-7.373-3.686l-6.144-4.915-4.915-6.144a31 31 0 0 1-3.686-7.373 26 26 0 0 1-2.458-7.373c-.41-2.867-.819-5.325-.819-8.192V419.84c0-2.867.41-5.325.82-8.192q.614-3.687 2.457-7.373 1.229-3.686 3.686-7.373l4.915-6.144 6.144-4.915q3.687-2.457 7.373-3.686 3.686-1.843 7.373-2.458c2.867-.41 5.325-.819 8.192-.819s5.325.41 8.192.82q3.686.613 7.373 2.457 3.686 1.229 7.373 3.686l6.144 4.915 4.915 6.144q2.457 3.687 3.686 7.373 1.843 3.687 2.458 7.373c.41 2.867.819 5.325.819 8.192m389.94-73.728c-.41-2.867-.82-5.325-.82-8.192v-204.8H348.16v614.4h491.52V378.88H655.36c-2.867 0-5.325-.41-8.192-.82a26 26 0 0 1-7.373-2.457 31 31 0 0 1-7.373-3.686l-6.144-4.915-4.915-6.144a31 31 0 0 1-3.686-7.373 26 26 0 0 1-2.458-7.373M787.25 296.96l-90.931-99.123v99.123z"/></svg>