<svg xmlns="http://www.w3.org/2000/svg" width="200" height="200" class="icon" viewBox="0 0 1024 1024"><path d="M941.834 197.755c0 12.288-5.734 23.347-14.745 30.31L822.64 332.923a39.81 39.81 0 0 1-55.706 0 39.813 39.813 0 0 1 0-55.706l40.14-40.14H635.045a39.322 39.322 0 0 1 0-78.644h172.032l-40.141-40.14a39.813 39.813 0 0 1 0-55.706c15.565-15.155 40.55-15.155 55.706 0L927.09 167.035c9.01 7.373 14.745 18.432 14.745 30.72m-66.191 427.622c56.934 57.754 56.934 121.651 21.3 176.538l-6.145 9.011-1.638 2.458-7.373 9.42-8.602 9.421c-1.229 1.23-2.457 2.458-3.686 3.277l-2.048 2.048-27.853 27.853c-126.157 126.976-386.253 47.104-551.731-113.05l-40.14-40.14C84.295 547.142-2.13 282.951 116.653 150.65l6.554-6.963 29.081-29.082c16.794-15.974 40.96-31.949 71.27-40.96 47.105-13.517 95.437-3.686 138.036 35.226l7.782 6.963 69.223 70.041c58.572 58.983 44.646 141.722 4.096 187.188l-4.096 4.505-13.927 13.927c-31.949 32.358-34.816 49.561-4.915 81.51l4.915 5.325 86.426 86.835c32.358 32.768 49.561 33.178 80.281 4.096l18.842-18.842c42.189-42.598 123.29-60.62 183.091-7.372l13.927 13.516zm-101.458 174.9 27.853-27.853 5.734-5.325 1.639-1.639 5.324-6.553 4.916-6.963c14.745-23.348 13.516-38.503-9.421-61.44l-66.765-67.175-11.878-11.469c-15.565-13.926-40.96-11.468-56.116 3.687l-20.48 20.48c-67.993 64.717-142.54 61.44-209.305-5.735l-87.245-88.064-6.144-6.144c-64.717-69.632-58.982-142.95 6.963-209.305l11.879-12.288 2.867-2.867c15.565-17.204 16.384-43.418-.82-61.03L305.604 182.6l-6.554-6.144-6.144-4.916c-14.746-11.468-28.262-13.926-43.827-9.42-12.698 3.686-24.167 10.65-31.54 17.612l-27.443 27.444-4.915 5.324c-72.09 79.872-16.793 288.768 127.795 434.586l38.912 38.912c146.228 141.722 347.75 189.645 422.298 114.278"/></svg>