<?xml version="1.0" standalone="no"?><!DOCTYPE svg PUBLIC "-//W3C//DTD SVG 1.1//EN" "http://www.w3.org/Graphics/SVG/1.1/DTD/svg11.dtd"><svg t="1705143107685" class="icon" viewBox="0 0 1024 1024" version="1.1" xmlns="http://www.w3.org/2000/svg" p-id="10166" xmlns:xlink="http://www.w3.org/1999/xlink" width="200" height="200"><path d="M941.83424 197.75488c0 12.288-5.7344 23.3472-14.7456 30.3104l-104.448 104.8576c-15.5648 15.1552-40.1408 15.1552-55.7056 0a39.81312 39.81312 0 0 1 0-55.7056l40.1408-40.1408h-172.032a39.3216 39.3216 0 0 1 0-78.6432h172.032l-40.1408-40.1408a39.81312 39.81312 0 0 1 0-55.7056c15.5648-15.1552 40.5504-15.1552 55.7056 0l104.448 104.448c9.0112 7.3728 14.7456 18.432 14.7456 30.72z m-66.19136 427.6224c56.9344 57.7536 56.9344 121.6512 21.2992 176.5376l-6.144 9.0112-1.6384 2.4576-7.3728 9.4208-8.6016 9.4208c-1.2288 1.2288-2.4576 2.4576-3.6864 3.2768l-2.048 2.048-27.8528 27.8528c-126.1568 126.976-386.2528 47.104-551.7312-113.0496l-40.1408-40.1408c-163.4304-165.0688-249.856-429.2608-131.072-561.5616l6.5536-6.9632 29.0816-29.0816c16.7936-15.9744 40.96-31.9488 71.2704-40.96 47.104-13.5168 95.4368-3.6864 138.0352 35.2256l7.7824 6.9632 69.2224 70.0416c58.5728 58.9824 44.6464 141.7216 4.096 187.1872l-4.096 4.5056-13.9264 13.9264c-31.9488 32.3584-34.816 49.5616-4.9152 81.5104l4.9152 5.3248 86.4256 86.8352c32.3584 32.768 49.5616 33.1776 80.2816 4.096l18.8416-18.8416c42.1888-42.5984 123.2896-60.6208 183.0912-7.3728l13.9264 13.5168 68.4032 68.8128z m-101.45792 174.8992l27.8528-27.8528 5.7344-5.3248 1.6384-1.6384 5.3248-6.5536 4.9152-6.9632c14.7456-23.3472 13.5168-38.5024-9.4208-61.44l-66.7648-67.1744-11.8784-11.4688c-15.5648-13.9264-40.96-11.4688-56.1152 3.6864l-20.48 20.48c-67.9936 64.7168-142.5408 61.44-209.3056-5.7344l-87.2448-88.064-6.144-6.144c-64.7168-69.632-58.9824-142.9504 6.9632-209.3056l11.8784-12.288 2.8672-2.8672c15.5648-17.2032 16.384-43.4176-0.8192-61.0304l-67.584-67.9936-6.5536-6.144-6.144-4.9152c-14.7456-11.4688-28.2624-13.9264-43.8272-9.4208-12.6976 3.6864-24.1664 10.6496-31.5392 17.6128l-27.4432 27.4432-4.9152 5.3248c-72.0896 79.872-16.7936 288.768 127.7952 434.5856l38.912 38.912c146.2272 141.7216 347.7504 189.6448 422.2976 114.2784z" p-id="10167"></path></svg>