<svg xmlns="http://www.w3.org/2000/svg" width="200" height="200" class="icon" viewBox="0 0 1024 1024"><path d="M512 42.667c63.573 0 124.587 12.373 182.613 37.12 56.32 23.466 105.814 57.173 149.334 100.266 43.093 43.52 76.8 93.014 100.266 149.334 24.747 58.026 37.12 119.04 37.12 182.613s-12.373 124.587-37.12 182.613c-23.466 56.32-57.173 105.814-100.266 149.334-43.52 43.093-93.014 76.8-149.334 100.266-58.026 24.747-119.04 37.12-182.613 37.12s-124.587-12.373-182.613-37.12c-56.32-23.466-105.814-57.173-149.334-100.266-43.093-43.52-76.8-93.014-100.266-149.334A461.2 461.2 0 0 1 42.667 512c0-63.573 12.373-124.587 37.12-182.613 23.466-56.32 57.173-105.814 100.266-149.334 43.52-43.093 93.014-76.8 149.334-100.266C387.413 55.04 448.427 42.667 512 42.667M240.64 783.36a375.9 375.9 0 0 0 122.027 82.347C410.027 885.76 459.947 896 512 896s101.973-10.24 149.333-30.293A375.9 375.9 0 0 0 783.36 783.36a375.9 375.9 0 0 0 82.347-122.027C885.76 613.973 896 564.053 896 512s-10.24-101.973-30.293-149.333A375.9 375.9 0 0 0 783.36 240.64a375.9 375.9 0 0 0-122.027-82.347A379.8 379.8 0 0 0 512 128c-52.053 0-101.973 10.24-149.333 30.293A375.9 375.9 0 0 0 240.64 240.64a375.9 375.9 0 0 0-82.347 122.027A379.8 379.8 0 0 0 128 512c0 52.053 10.24 101.973 30.293 149.333A375.9 375.9 0 0 0 240.64 783.36m229.547-164.139c-.427-2.986-.854-5.546-.854-8.533v-85.333c0-2.987.427-5.547.854-8.534q.64-3.84 2.56-7.68 1.28-3.84 3.84-7.68l5.12-6.4 6.4-5.12q3.84-2.559 7.68-3.84 3.84-1.92 7.68-2.56c2.986-.426 5.546-.853 8.533-.853 11.52 0 22.613-2.133 33.28-6.827 10.24-4.266 19.2-10.24 27.307-17.92 7.68-8.106 13.653-17.066 17.92-27.306 4.693-10.667 6.826-21.76 6.826-33.28s-2.133-22.614-6.826-33.28c-4.267-10.24-10.24-19.2-17.92-27.307-8.107-7.68-17.067-13.653-27.307-17.92-10.667-4.693-21.76-6.827-33.28-6.827s-22.613 2.134-33.28 6.827c-10.24 4.267-19.2 10.24-27.307 17.92-7.68 8.107-13.653 17.067-17.92 27.307-4.693 10.666-6.826 21.76-6.826 33.28 0 5.546-1.28 11.093-3.414 16.213-2.133 5.547-5.12 9.813-8.96 14.08-4.266 3.84-8.533 6.827-14.08 8.96-5.12 2.133-10.666 3.413-16.213 3.413-2.987 0-5.547-.426-8.533-.853a27.1 27.1 0 0 1-7.68-2.56 32.3 32.3 0 0 1-7.68-3.84l-6.4-5.12-5.12-6.4a32.3 32.3 0 0 1-3.84-7.68 27.1 27.1 0 0 1-2.56-7.68c-.427-2.987-.854-5.547-.854-8.533 0-23.04 4.267-45.227 13.227-66.56 8.96-20.48 20.907-38.4 36.693-54.187s33.707-27.733 54.187-36.693c21.333-8.96 43.52-13.227 66.56-13.227s45.227 4.267 66.56 13.227c20.48 8.96 38.4 20.906 54.187 36.693s27.733 33.707 36.693 54.187c8.96 21.333 13.227 43.52 13.227 66.56s-4.267 45.226-13.227 66.56c-8.96 20.48-20.907 38.4-36.693 54.186s-33.707 27.734-54.187 36.694c-7.68 2.986-15.787 5.973-23.893 7.68v48.213c0 2.987-.427 5.547-.854 8.533q-.64 3.84-2.56 7.68-1.28 3.84-3.84 7.68l-5.12 6.4-6.4 5.12q-3.84 2.56-7.68 3.84-3.84 1.92-7.68 2.56c-2.986.427-5.546.854-8.533.854s-5.547-.427-8.533-.854a27.1 27.1 0 0 1-7.68-2.56 32.3 32.3 0 0 1-7.68-3.84l-6.4-5.12-5.12-6.4a32.3 32.3 0 0 1-3.84-7.68 27.1 27.1 0 0 1-2.56-7.68m41.813 76.8a53.333 53.333 0 1 1 0 106.667 53.333 53.333 0 0 1 0-106.667"/></svg>