<svg xmlns="http://www.w3.org/2000/svg" width="200" height="200" class="icon" viewBox="0 0 1024 1024"><path d="M757.76 57.057c20.48 5.735 45.875 24.167 58.163 45.466 2.867 5.734 6.554 13.926 8.192 20.48 2.048 7.373 3.687 17.613 3.687 25.805v154.828A184.115 184.115 0 0 1 962.56 481.28c0 84.787-56.934 156.058-134.758 177.603V821.78c0 15.156-5.735 35.226-12.698 47.514-7.373 12.288-21.3 26.624-33.997 34.406 0 0-.41.41-.819.41-13.107 7.373-32.358 12.288-46.694 12.288-14.746 0-33.997-4.915-47.514-12.288l-204.8-117.146 11.06 54.887c3.276 15.155 1.638 35.635-3.278 49.971-3.276 9.011-9.83 21.3-16.384 29.082-9.01 10.65-24.166 21.708-36.454 27.033-10.24 4.096-24.986 7.373-36.454 7.373h-51.61c-20.48 0-45.466-9.83-60.211-21.709-14.336-11.878-28.672-34.406-32.359-54.477L227.738 740.68h-30.72c-22.938 0-50.381-11.879-65.127-26.215-15.974-15.155-29.491-44.237-29.491-68.403V324.526c0-52.429 42.189-94.618 94.618-94.618h203.57L686.08 66.478c20.48-11.469 51.2-14.746 71.68-9.42M827.802 391.7v179.2a102.4 102.4 0 0 0 0-179.24zm-395.674-85.196c-6.554 3.276-13.107 5.324-20.48 5.324h-214.63c-6.964 0-12.698 5.735-12.698 12.698v321.536c0 3.277 0 4.506.41 5.325.41.82 1.228 1.638 3.686 3.686 2.048 2.048 2.867 2.867 3.686 3.277.82.41 2.048.41 4.916.41h64.307c2.457 0 4.505 0 6.963.41 2.458.409 4.506 1.228 6.963 2.047 2.048.82 4.096 1.639 6.144 2.867 2.048 1.23 4.096 2.458 5.735 3.687 2.048 1.638 3.686 3.277 5.324 4.915 1.23 2.048 2.868 3.686 4.096 5.734 1.23 2.048 2.048 4.096 2.868 6.554.819 2.048 1.638 4.506 2.048 6.554l34.406 171.622c1.229 5.325 0 3.686 4.506 7.373 2.048 1.638 2.457 2.457 3.276 2.457.82.41 2.048.41 4.506.41h54.067c.41 0 .82-.41 2.048-.82 3.687-1.638 2.867-1.228 5.325-4.095 1.638-2.048 1.229-1.229 2.048-3.687.82-1.638.82-2.457 1.229-3.276 0-.41-.41-1.23-.82-3.277l-28.671-143.77a35.06 35.06 0 0 1 0-15.974q1.229-7.987 6.144-14.746a35.6 35.6 0 0 1 11.059-11.059q6.758-4.916 14.745-6.144c4.916-1.229 9.83-1.229 14.746-.41 4.915.82 9.42 2.458 13.926 4.916L727.04 832.84c1.638.819 2.048 1.228 2.867 1.638h6.963c.82-.41 1.23-.82 2.868-1.638 2.867-1.639 2.457-1.23 4.505-4.506.82-2.048 1.229-2.458 1.639-3.277V146.76s0-.41-.41-1.639c-.41-1.638-.41-1.638-1.638-3.277-2.458-4.915-1.23-3.686-7.373-5.324-2.867-.82-4.096-1.23-4.915-1.23-1.23 0-2.048.82-4.506 2.458z"/></svg>