<?xml version="1.0" standalone="no"?><!DOCTYPE svg PUBLIC "-//W3C//DTD SVG 1.1//EN" "http://www.w3.org/Graphics/SVG/1.1/DTD/svg11.dtd"><svg t="1705142739660" class="icon" viewBox="0 0 1024 1024" version="1.1" xmlns="http://www.w3.org/2000/svg" p-id="9362" xmlns:xlink="http://www.w3.org/1999/xlink" width="200" height="200"><path d="M757.76 57.05728c20.48 5.7344 45.8752 24.1664 58.1632 45.4656 2.8672 5.7344 6.5536 13.9264 8.192 20.48 2.048 7.3728 3.6864 17.6128 3.6864 25.8048v154.8288A184.1152 184.1152 0 0 1 962.56 481.28c0 84.7872-56.9344 156.0576-134.7584 177.60256v162.89792c0 15.1552-5.7344 35.2256-12.6976 47.5136-7.3728 12.288-21.2992 26.624-33.9968 34.4064 0 0-0.4096 0.4096-0.8192 0.4096-13.1072 7.3728-32.3584 12.288-46.6944 12.288-14.7456 0-33.9968-4.9152-47.5136-12.288l-204.8-117.1456 11.0592 54.8864c3.2768 15.1552 1.6384 35.6352-3.2768 49.9712-3.2768 9.0112-9.8304 21.2992-16.384 29.0816-9.0112 10.6496-24.1664 21.7088-36.4544 27.0336-10.24 4.096-24.9856 7.3728-36.4544 7.3728H348.16c-20.48 0-45.4656-9.8304-60.2112-21.7088-14.336-11.8784-28.672-34.4064-32.3584-54.4768l-27.8528-138.4448h-30.72c-22.9376 0-50.3808-11.8784-65.1264-26.2144-15.9744-15.1552-29.4912-44.2368-29.4912-68.4032v-321.536c0-52.4288 42.1888-94.6176 94.6176-94.6176h203.5712l285.4912-163.4304c20.48-11.4688 51.2-14.7456 71.68-9.4208z m70.0416 334.6432v179.2a102.4 102.4 0 0 0 0-179.24096z m-395.6736-85.1968c-6.5536 3.2768-13.1072 5.3248-20.48 5.3248H197.0176c-6.9632 0-12.6976 5.7344-12.6976 12.6976v321.536c0 3.2768 0 4.5056 0.4096 5.3248 0.4096 0.8192 1.2288 1.6384 3.6864 3.6864 2.048 2.048 2.8672 2.8672 3.6864 3.2768 0.8192 0.4096 2.048 0.4096 4.9152 0.4096h64.3072c2.4576 0 4.5056 0 6.9632 0.4096 2.4576 0.4096 4.5056 1.2288 6.9632 2.048 2.048 0.8192 4.096 1.6384 6.144 2.8672 2.048 1.2288 4.096 2.4576 5.7344 3.6864 2.048 1.6384 3.6864 3.2768 5.3248 4.9152 1.2288 2.048 2.8672 3.6864 4.096 5.7344 1.2288 2.048 2.048 4.096 2.8672 6.5536 0.8192 2.048 1.6384 4.5056 2.048 6.5536l34.4064 171.6224c1.2288 5.3248 0 3.6864 4.5056 7.3728 2.048 1.6384 2.4576 2.4576 3.2768 2.4576 0.8192 0.4096 2.048 0.4096 4.5056 0.4096h54.0672c0.4096 0 0.8192-0.4096 2.048-0.8192 3.6864-1.6384 2.8672-1.2288 5.3248-4.096 1.6384-2.048 1.2288-1.2288 2.048-3.6864 0.8192-1.6384 0.8192-2.4576 1.2288-3.2768 0-0.4096-0.4096-1.2288-0.8192-3.2768l-28.672-143.7696a35.06176 35.06176 0 0 1 0-15.9744c0.8192-5.3248 2.8672-10.24 6.144-14.7456 2.8672-4.5056 6.5536-8.192 11.0592-11.0592 4.5056-3.2768 9.4208-5.3248 14.7456-6.144 4.9152-1.2288 9.8304-1.2288 14.7456-0.4096 4.9152 0.8192 9.4208 2.4576 13.9264 4.9152l283.0336 161.792c1.6384 0.8192 2.048 1.2288 2.8672 1.6384h6.9632c0.8192-0.4096 1.2288-0.8192 2.8672-1.6384 2.8672-1.6384 2.4576-1.2288 4.5056-4.5056 0.8192-2.048 1.2288-2.4576 1.6384-3.2768V146.75968s0-0.4096-0.4096-1.6384c-0.4096-1.6384-0.4096-1.6384-1.6384-3.2768-2.4576-4.9152-1.2288-3.6864-7.3728-5.3248-2.8672-0.8192-4.096-1.2288-4.9152-1.2288-1.2288 0-2.048 0.8192-4.5056 2.4576l-294.912 168.7552z" p-id="9363"></path></svg>