<?xml version="1.0" standalone="no"?><!DOCTYPE svg PUBLIC "-//W3C//DTD SVG 1.1//EN" "http://www.w3.org/Graphics/SVG/1.1/DTD/svg11.dtd"><svg t="1705141339387" class="icon" viewBox="0 0 1024 1024" version="1.1" xmlns="http://www.w3.org/2000/svg" p-id="8424" xmlns:xlink="http://www.w3.org/1999/xlink" width="200" height="200"><path d="M752.88576 810.72128a448.512 448.512 0 0 1-240.8448 70.0416c-220.7744 0-404.6848-158.9248-443.1872-368.64 17.6128-95.4368 65.536-182.6816 136.8064-248.6272l-128.2048-128.2048 58.1632-57.7536 811.008 811.008-58.1632 57.7536-135.5776-135.5776z m119.72608-110.71488l-58.5728-58.5728c27.4432-38.912 47.104-82.7392 57.344-129.4336a368.59904 368.59904 0 0 0-459.5712-272.7936l-64.7168-64.7168c51.2-20.0704 106.9056-31.1296 165.0688-31.1296 220.7744 0 404.2752 158.9248 443.1872 368.64-12.6976 68.4032-40.96 132.7104-82.7392 188.0064zM152.53504 512a368.80384 368.80384 0 0 0 210.5344 255.1808c106.496 47.104 228.9664 40.96 330.1376-15.9744l-83.1488-83.1488a184.19712 184.19712 0 0 1-228.5568-25.8048 184.5248 184.5248 0 0 1-25.3952-228.5568l-92.5696-92.16a368.72192 368.72192 0 0 0-111.0016 190.464z m489.79968-130.2528c37.2736 37.2736 56.9344 88.8832 53.6576 141.7216l-195.3792-195.3792c52.8384-3.2768 104.448 16.384 141.7216 53.6576z m-92.69248 225.52576l-133.12-132.7104c-14.7456 38.0928-5.7344 81.1008 22.9376 109.7728 29.0816 29.0816 72.0896 37.6832 110.1824 22.9376z" p-id="8425"></path></svg>