<svg xmlns="http://www.w3.org/2000/svg" width="200" height="200" class="icon" viewBox="0 0 1024 1024"><path d="M752.886 810.721a448.5 448.5 0 0 1-240.845 70.042c-220.774 0-404.685-158.925-443.187-368.64C86.467 416.686 134.39 329.44 205.66 263.496L77.455 135.29l58.164-57.754 811.008 811.008-58.164 57.754zm119.726-110.715-58.573-58.572c27.443-38.912 47.104-82.74 57.344-129.434a368.6 368.6 0 0 0-459.571-272.794l-64.717-64.716c51.2-20.07 106.906-31.13 165.069-31.13 220.774 0 404.275 158.925 443.187 368.64-12.698 68.403-40.96 132.71-82.74 188.006M152.535 512a368.8 368.8 0 0 0 210.534 255.18c106.496 47.105 228.967 40.96 330.138-15.974l-83.149-83.148a184.2 184.2 0 0 1-228.557-25.805 184.525 184.525 0 0 1-25.395-228.557l-92.57-92.16A368.72 368.72 0 0 0 152.536 512m489.8-130.253c37.273 37.274 56.934 88.883 53.657 141.722l-195.379-195.38c52.839-3.276 104.448 16.385 141.722 53.658m-92.693 225.526-133.12-132.71c-14.745 38.092-5.734 81.1 22.938 109.772 29.081 29.082 72.09 37.684 110.182 22.938"/></svg>