<svg xmlns="http://www.w3.org/2000/svg" width="200" height="200" class="icon" viewBox="0 0 1024 1024"><path d="m775.893 619.605-230.016 232.96a31.45 31.45 0 0 1-22.997 9.814c-8.49 0-16.981-3.414-22.955-9.814l-229.973-232.96A362.24 362.24 0 0 1 164.907 363.18C164.907 162.56 325.205 0 522.88 0c197.717 0 358.016 162.56 358.016 362.71 0 100.266-39.979 191.146-105.003 256.853zm-109.61-260.181c0-79.36-64.171-143.787-143.275-143.787a143.616 143.616 0 0 0-143.275 143.744c0 79.36 64.214 143.787 143.275 143.787a143.616 143.616 0 0 0 143.275-143.787zM496.256 920.491c6.827 7.253 16.597 11.52 26.795 11.52a38.4 38.4 0 0 0 26.752-11.52l240.682-243.84c90.752 36.266 148.182 89.856 148.182 149.76C938.667 935.68 747.776 1024 512.213 1024c-235.946 0-426.88-88.32-426.88-197.547 0-63.317 64.128-119.637 163.968-155.733l246.955 249.813z"/></svg>