<?xml version="1.0" standalone="no"?><!DOCTYPE svg PUBLIC "-//W3C//DTD SVG 1.1//EN" "http://www.w3.org/Graphics/SVG/1.1/DTD/svg11.dtd"><svg t="1705143141083" class="icon" viewBox="0 0 1024 1024" version="1.1" xmlns="http://www.w3.org/2000/svg" p-id="10300" xmlns:xlink="http://www.w3.org/1999/xlink" width="200" height="200"><path d="M775.893333 619.605333l-230.016 232.96a31.445333 31.445333 0 0 1-22.997333 9.813334c-8.490667 0-16.981333-3.413333-22.954667-9.813334l-229.973333-232.96a362.24 362.24 0 0 1-105.045333-256.426666C164.906667 162.56 325.205333 0 522.88 0c197.717333 0 358.016 162.56 358.016 362.709333 0 100.266667-39.978667 191.146667-105.002667 256.853334z m-109.610666-260.181333c0-79.36-64.170667-143.786667-143.274667-143.786667A143.616 143.616 0 0 0 379.733333 359.381333c0 79.36 64.213333 143.786667 143.274667 143.786667a143.616 143.616 0 0 0 143.274667-143.786667z m-170.026667 561.066667c6.826667 7.253333 16.597333 11.52 26.794667 11.52a38.4 38.4 0 0 0 26.752-11.52l240.682666-243.84c90.752 36.266667 148.181333 89.856 148.181334 149.76C938.666667 935.68 747.776 1024 512.213333 1024 276.266667 1024 85.333333 935.68 85.333333 826.453333c0-63.317333 64.128-119.637333 163.968-155.733333l246.954667 249.813333z" p-id="10301"></path></svg>