<svg xmlns="http://www.w3.org/2000/svg" width="200" height="200" class="icon" viewBox="0 0 1024 1024"><path d="M882.304 601.387a399.7 399.7 0 0 1-86.187 128.853l-230.4 232.96c-7.253 7.253-15.36 12.8-24.746 16.64-9.387 3.84-18.774 5.973-29.014 5.973s-19.626-2.133-29.013-5.973-17.493-9.387-24.747-16.64l-230.4-232.96a400.5 400.5 0 0 1-87.466-131.413 396.1 396.1 0 0 1-30.294-154.88c0-55.04 10.667-107.52 31.574-157.867a404.3 404.3 0 0 1 86.186-128.853 390 390 0 0 1 127.574-87.04c49.92-21.334 101.973-32 156.586-32s106.667 10.666 156.587 32a390 390 0 0 1 127.573 87.04c37.12 37.12 65.707 80.213 86.187 128.853 20.907 49.92 31.573 102.4 31.573 157.44s-10.666 107.52-31.573 157.867M735.531 216.96a311.8 311.8 0 0 0-100.694-68.267 308.9 308.9 0 0 0-122.88-25.173c-43.093 0-84.053 8.533-122.88 25.173-37.973 16.214-71.68 38.827-100.693 68.694-29.44 29.44-52.053 63.146-68.267 101.546-16.64 39.68-24.746 81.494-24.746 125.014 0 42.24 7.68 83.2 23.893 122.453s39.253 73.813 69.12 104.107l223.573 225.28 223.574-225.28c29.44-29.867 52.053-63.574 68.266-101.974 16.64-39.68 24.747-81.493 24.747-125.013s-8.107-84.907-24.747-124.587c-16.213-38.4-38.826-72.106-68.266-101.973M439.424 612.053c-22.187-9.386-41.813-22.613-59.307-40.106-17.066-17.067-30.293-36.694-39.68-59.307a183.9 183.9 0 0 1 0-145.067c9.387-22.186 22.614-41.813 39.68-59.306 17.494-17.067 37.12-30.294 59.307-39.68a183.9 183.9 0 0 1 145.067 0c22.613 9.386 42.24 22.613 59.306 39.68a184.58 184.58 0 0 1 54.614 131.84c0 25.173-4.694 49.493-14.507 72.533-9.387 22.613-22.613 42.24-40.107 59.307-17.066 17.493-36.693 30.72-59.306 40.106-23.04 9.814-47.36 14.507-72.534 14.507-25.173 0-49.493-4.693-72.533-14.507m144.213-100.266c9.387-9.387 16.64-20.054 21.76-32.427s7.68-25.6 7.68-39.253c0-13.654-2.56-26.88-7.68-39.254q-7.68-17.92-21.76-32a98.6 98.6 0 0 0-32.426-21.76c-12.374-5.546-25.6-8.106-39.254-8.106a101.42 101.42 0 0 0-71.253 29.866 101.42 101.42 0 0 0-29.867 71.254c0 13.653 2.56 26.88 8.107 39.253 5.12 12.373 12.373 23.04 21.76 32.427q14.08 14.08 32 21.76c12.373 5.12 25.6 7.68 39.253 7.68 13.654 0 26.88-2.56 39.254-7.68s23.04-12.374 32.426-21.76"/></svg>