<?xml version="1.0" standalone="no"?><!DOCTYPE svg PUBLIC "-//W3C//DTD SVG 1.1//EN" "http://www.w3.org/Graphics/SVG/1.1/DTD/svg11.dtd"><svg t="1705142588949" class="icon" viewBox="0 0 1024 1024" version="1.1" xmlns="http://www.w3.org/2000/svg" p-id="8692" xmlns:xlink="http://www.w3.org/1999/xlink" width="200" height="200"><path d="M882.304 601.386667a399.658667 399.658667 0 0 1-86.186667 128.853333l-230.4 232.96c-7.253333 7.253333-15.36 12.8-24.746666 16.64-9.386667 3.84-18.773333 5.973333-29.013334 5.973333-10.24 0-19.626667-2.133333-29.013333-5.973333-9.386667-3.84-17.493333-9.386667-24.746667-16.64l-230.4-232.96a400.512 400.512 0 0 1-87.466666-131.413333 396.074667 396.074667 0 0 1-30.293334-154.88c0-55.04 10.666667-107.52 31.573334-157.866667a404.309333 404.309333 0 0 1 86.186666-128.853333 389.973333 389.973333 0 0 1 127.573334-87.04c49.92-21.333333 101.973333-32 156.586666-32 54.613333 0 106.666667 10.666667 156.586667 32a389.973333 389.973333 0 0 1 127.573333 87.04c37.12 37.12 65.706667 80.213333 86.186667 128.853333 20.906667 49.92 31.573333 102.4 31.573333 157.44s-10.666667 107.52-31.573333 157.866667z m-146.773333-384.426667a311.765333 311.765333 0 0 0-100.693334-68.266667 308.906667 308.906667 0 0 0-122.88-25.173333c-43.093333 0-84.053333 8.533333-122.88 25.173333-37.973333 16.213333-71.68 38.826667-100.693333 68.693334-29.44 29.44-52.053333 63.146667-68.266667 101.546666-16.64 39.68-24.746667 81.493333-24.746666 125.013334 0 42.24 7.68 83.2 23.893333 122.453333 16.213333 39.253333 39.253333 73.813333 69.12 104.106667l223.573333 225.28 223.573334-225.28c29.44-29.866667 52.053333-63.573333 68.266666-101.973334 16.64-39.68 24.746667-81.493333 24.746667-125.013333 0-43.52-8.106667-84.906667-24.746667-124.586667-16.213333-38.4-38.826667-72.106667-68.266666-101.973333z m-296.106667 395.093333c-22.186667-9.386667-41.813333-22.613333-59.306667-40.106666-17.066667-17.066667-30.293333-36.693333-39.68-59.306667a183.893333 183.893333 0 0 1 0-145.066667c9.386667-22.186667 22.613333-41.813333 39.68-59.306666 17.493333-17.066667 37.12-30.293333 59.306667-39.68a183.893333 183.893333 0 0 1 145.066667 0c22.613333 9.386667 42.24 22.613333 59.306666 39.68a184.576 184.576 0 0 1 54.613334 131.84c0 25.173333-4.693333 49.493333-14.506667 72.533333-9.386667 22.613333-22.613333 42.24-40.106667 59.306667-17.066667 17.493333-36.693333 30.72-59.306666 40.106666-23.04 9.813333-47.36 14.506667-72.533334 14.506667-25.173333 0-49.493333-4.693333-72.533333-14.506667z m144.213333-100.266666c9.386667-9.386667 16.64-20.053333 21.76-32.426667 5.12-12.373333 7.68-25.6 7.68-39.253333 0-13.653333-2.56-26.88-7.68-39.253334-5.12-11.946667-12.373333-22.613333-21.76-32a98.56 98.56 0 0 0-32.426666-21.76c-12.373333-5.546667-25.6-8.106667-39.253334-8.106666a101.418667 101.418667 0 0 0-71.253333 29.866666 101.418667 101.418667 0 0 0-29.866667 71.253334c0 13.653333 2.56 26.88 8.106667 39.253333 5.12 12.373333 12.373333 23.04 21.76 32.426667 9.386667 9.386667 20.053333 16.64 32 21.76 12.373333 5.12 25.6 7.68 39.253333 7.68 13.653333 0 26.88-2.56 39.253334-7.68 12.373333-5.12 23.04-12.373333 32.426666-21.76z" p-id="8693"></path></svg>