<svg xmlns="http://www.w3.org/2000/svg" width="200" height="200" class="icon" viewBox="0 0 1024 1024"><path d="M743.834 269.926a321 321 0 0 0-104.448-70.041A321.95 321.95 0 0 0 512 174.08q-68.199 0-130.253 27.034c-40.14 17.203-75.366 41.37-105.677 72.908-3.686 4.096-8.192 6.964-13.107 9.421-4.915 2.048-10.24 3.277-15.565 3.277s-10.65-.82-15.974-2.867a40.5 40.5 0 0 1-13.107-8.602c-2.048-2.048-3.687-4.096-5.325-6.144s-2.867-4.505-4.096-6.963c-.82-2.458-1.638-4.915-2.458-7.782-.41-2.458-.819-5.325-.819-7.783 0-2.867 0-5.325.82-8.192.409-2.457 1.228-4.915 2.047-7.782.82-2.458 2.048-4.915 3.687-6.963q1.843-3.687 4.915-6.144c38.093-39.732 81.92-70.042 132.3-91.75C400.999 103.218 455.067 92.16 512 92.16c55.706 0 108.544 10.65 159.334 32.358 49.152 20.48 92.57 49.972 130.253 87.655 13.804 13.803 26.542 28.385 38.093 43.745V174.08c0-2.867.41-5.325.82-8.192q.613-3.686 2.457-7.373 1.229-3.686 3.686-7.373l4.915-6.144 6.144-4.915q3.687-2.457 7.373-3.686 3.686-1.843 7.373-2.458c2.867-.41 5.325-.819 8.192-.819s5.325.41 8.192.82q3.687.613 7.373 2.457 3.686 1.229 7.373 3.686l6.144 4.915 4.915 6.144q2.457 3.687 3.686 7.373 1.843 3.686 2.458 7.373c.41 2.867.819 5.325.819 8.192v327.68c0 2.867-.41 5.325-.82 8.192q-.613 3.687-2.457 7.373-1.229 3.686-3.686 7.373l-4.915 6.144-6.144 4.915q-3.687 2.457-7.373 3.686-3.686 1.843-7.373 2.458c-2.867.41-5.325.819-8.192.819s-5.325-.41-8.192-.82a26 26 0 0 1-7.373-2.457 31 31 0 0 1-7.373-3.686l-6.144-4.915c-1.638-2.048-3.686-4.096-4.915-6.144a31 31 0 0 1-3.686-7.373 26 26 0 0 1-2.458-7.373c-.41-2.867-.819-5.325-.819-8.192 0-44.646-8.602-86.835-25.805-127.386q-24.576-58.981-70.041-104.448M177.357 478.822q2.457 3.687 3.686 7.373 1.843 3.687 2.458 7.373c.41 2.867.819 5.325.819 8.192 0 44.646 8.602 86.835 25.805 127.386q24.576 58.981 70.041 104.448 45.466 45.465 104.448 70.041c40.55 17.203 82.74 25.805 127.386 25.805 43.418 0 85.197-8.192 124.928-24.576 38.502-15.974 72.5-38.093 102.81-67.174q2.457-3.072 6.144-4.916a28.7 28.7 0 0 1 6.963-3.686c2.867-.82 5.325-1.638 7.782-2.048 2.867-.82 5.325-.82 8.192-.82 2.458 0 5.325.41 7.783.82 2.867.82 5.324 1.638 7.782 2.458 2.458 1.228 4.915 2.457 6.963 4.096 2.458 1.638 4.096 3.276 6.144 5.324q3.072 2.458 4.915 6.144a28.7 28.7 0 0 1 3.687 6.964c.819 2.867 1.638 5.324 2.048 7.782.819 2.867.819 5.325.819 8.192 0 2.458-.41 5.325-.82 7.782-.818 2.868-1.638 5.325-2.457 7.783a39 39 0 0 1-4.096 6.963c-1.638 2.458-3.277 4.096-5.325 6.144a404.3 404.3 0 0 1-128.204 83.968C618.086 901.12 566.477 911.36 512 911.36a400.2 400.2 0 0 1-159.334-32.358c-49.152-20.48-92.57-49.972-130.253-87.655a416 416 0 0 1-38.093-43.745v81.838c0 2.867-.41 5.325-.82 8.192q-.614 3.686-2.457 7.373-1.229 3.686-3.686 7.373l-4.915 6.144-6.144 4.915q-3.687 2.457-7.373 3.686-3.686 1.843-7.373 2.458c-2.867.41-5.325.819-8.192.819s-5.325-.41-8.192-.82a26 26 0 0 1-7.373-2.457 31 31 0 0 1-7.373-3.686l-6.144-4.915-4.915-6.144a31 31 0 0 1-3.686-7.373 26 26 0 0 1-2.458-7.373c-.41-2.867-.819-5.325-.819-8.192V501.76c0-2.867.41-5.325.82-8.192q.614-3.687 2.457-7.373 1.229-3.686 3.686-7.373l4.915-6.144 6.144-4.915q3.687-2.457 7.373-3.686 3.686-1.843 7.373-2.458c2.867-.41 5.325-.819 8.192-.819s5.325.41 8.192.82q3.686.613 7.373 2.457 3.686 1.229 7.373 3.686l6.144 4.915z"/></svg>