<?xml version="1.0" standalone="no"?><!DOCTYPE svg PUBLIC "-//W3C//DTD SVG 1.1//EN" "http://www.w3.org/Graphics/SVG/1.1/DTD/svg11.dtd"><svg t="1705143029057" class="icon" viewBox="0 0 1024 1024" version="1.1" xmlns="http://www.w3.org/2000/svg" p-id="9898" xmlns:xlink="http://www.w3.org/1999/xlink" width="200" height="200"><path d="M743.8336 269.9264a320.96256 320.96256 0 0 0-104.448-70.0416A321.9456 321.9456 0 0 0 512 174.08c-45.4656 0-88.8832 9.0112-130.2528 27.0336-40.1408 17.2032-75.3664 41.3696-105.6768 72.9088-3.6864 4.096-8.192 6.9632-13.1072 9.4208-4.9152 2.048-10.24 3.2768-15.5648 3.2768s-10.6496-0.8192-15.9744-2.8672a40.46848 40.46848 0 0 1-13.1072-8.6016c-2.048-2.048-3.6864-4.096-5.3248-6.144-1.6384-2.048-2.8672-4.5056-4.096-6.9632-0.8192-2.4576-1.6384-4.9152-2.4576-7.7824-0.4096-2.4576-0.8192-5.3248-0.8192-7.7824 0-2.8672 0-5.3248 0.8192-8.192 0.4096-2.4576 1.2288-4.9152 2.048-7.7824 0.8192-2.4576 2.048-4.9152 3.6864-6.9632 1.2288-2.4576 2.8672-4.5056 4.9152-6.144 38.0928-39.7312 81.92-70.0416 132.3008-91.7504 51.6096-22.528 105.6768-33.5872 162.6112-33.5872 55.7056 0 108.544 10.6496 159.3344 32.3584 49.152 20.48 92.5696 49.9712 130.2528 87.6544 13.80352 13.80352 26.54208 28.38528 38.0928 43.74528V174.08c0-2.8672 0.4096-5.3248 0.8192-8.192 0.4096-2.4576 1.2288-4.9152 2.4576-7.3728 0.8192-2.4576 2.048-4.9152 3.6864-7.3728l4.9152-6.144 6.144-4.9152c2.4576-1.6384 4.9152-2.8672 7.3728-3.6864 2.4576-1.2288 4.9152-2.048 7.3728-2.4576 2.8672-0.4096 5.3248-0.8192 8.192-0.8192s5.3248 0.4096 8.192 0.8192c2.4576 0.4096 4.9152 1.2288 7.3728 2.4576 2.4576 0.8192 4.9152 2.048 7.3728 3.6864l6.144 4.9152 4.9152 6.144c1.6384 2.4576 2.8672 4.9152 3.6864 7.3728 1.2288 2.4576 2.048 4.9152 2.4576 7.3728 0.4096 2.8672 0.8192 5.3248 0.8192 8.192v327.68c0 2.8672-0.4096 5.3248-0.8192 8.192-0.4096 2.4576-1.2288 4.9152-2.4576 7.3728-0.8192 2.4576-2.048 4.9152-3.6864 7.3728l-4.9152 6.144-6.144 4.9152c-2.4576 1.6384-4.9152 2.8672-7.3728 3.6864-2.4576 1.2288-4.9152 2.048-7.3728 2.4576-2.8672 0.4096-5.3248 0.8192-8.192 0.8192s-5.3248-0.4096-8.192-0.8192a26.05056 26.05056 0 0 1-7.3728-2.4576 31.00672 31.00672 0 0 1-7.3728-3.6864l-6.144-4.9152c-1.6384-2.048-3.6864-4.096-4.9152-6.144a31.00672 31.00672 0 0 1-3.6864-7.3728 26.05056 26.05056 0 0 1-2.4576-7.3728c-0.4096-2.8672-0.8192-5.3248-0.8192-8.192 0-44.6464-8.6016-86.8352-25.8048-127.3856-16.384-39.3216-39.7312-74.1376-70.0416-104.448z m-566.4768 208.896c1.6384 2.4576 2.8672 4.9152 3.6864 7.3728 1.2288 2.4576 2.048 4.9152 2.4576 7.3728 0.4096 2.8672 0.8192 5.3248 0.8192 8.192 0 44.6464 8.6016 86.8352 25.8048 127.3856 16.384 39.3216 39.7312 74.1376 70.0416 104.448 30.3104 30.3104 65.1264 53.6576 104.448 70.0416 40.5504 17.2032 82.7392 25.8048 127.3856 25.8048 43.4176 0 85.1968-8.192 124.928-24.576 38.5024-15.9744 72.4992-38.0928 102.8096-67.1744 1.6384-2.048 3.6864-3.6864 6.144-4.9152a28.672 28.672 0 0 1 6.9632-3.6864c2.8672-0.8192 5.3248-1.6384 7.7824-2.048 2.8672-0.8192 5.3248-0.8192 8.192-0.8192 2.4576 0 5.3248 0.4096 7.7824 0.8192 2.8672 0.8192 5.3248 1.6384 7.7824 2.4576 2.4576 1.2288 4.9152 2.4576 6.9632 4.096 2.4576 1.6384 4.096 3.2768 6.144 5.3248 2.048 1.6384 3.6864 3.6864 4.9152 6.144a28.672 28.672 0 0 1 3.6864 6.9632c0.8192 2.8672 1.6384 5.3248 2.048 7.7824 0.8192 2.8672 0.8192 5.3248 0.8192 8.192 0 2.4576-0.4096 5.3248-0.8192 7.7824-0.8192 2.8672-1.6384 5.3248-2.4576 7.7824a38.912 38.912 0 0 1-4.096 6.9632c-1.6384 2.4576-3.2768 4.096-5.3248 6.144a404.2752 404.2752 0 0 1-128.2048 83.968c-49.9712 20.48-101.5808 30.72-156.0576 30.72a400.1792 400.1792 0 0 1-159.3344-32.3584c-49.152-20.48-92.5696-49.9712-130.2528-87.6544A415.62112 415.62112 0 0 1 184.32 747.60192v81.83808c0 2.8672-0.4096 5.3248-0.8192 8.192-0.4096 2.4576-1.2288 4.9152-2.4576 7.3728-0.8192 2.4576-2.048 4.9152-3.6864 7.3728l-4.9152 6.144-6.144 4.9152c-2.4576 1.6384-4.9152 2.8672-7.3728 3.6864-2.4576 1.2288-4.9152 2.048-7.3728 2.4576-2.8672 0.4096-5.3248 0.8192-8.192 0.8192s-5.3248-0.4096-8.192-0.8192a26.05056 26.05056 0 0 1-7.3728-2.4576 31.00672 31.00672 0 0 1-7.3728-3.6864l-6.144-4.9152-4.9152-6.144a31.00672 31.00672 0 0 1-3.6864-7.3728 26.05056 26.05056 0 0 1-2.4576-7.3728c-0.4096-2.8672-0.8192-5.3248-0.8192-8.192v-327.68c0-2.8672 0.4096-5.3248 0.8192-8.192 0.4096-2.4576 1.2288-4.9152 2.4576-7.3728 0.8192-2.4576 2.048-4.9152 3.6864-7.3728l4.9152-6.144 6.144-4.9152c2.4576-1.6384 4.9152-2.8672 7.3728-3.6864 2.4576-1.2288 4.9152-2.048 7.3728-2.4576 2.8672-0.4096 5.3248-0.8192 8.192-0.8192s5.3248 0.4096 8.192 0.8192c2.4576 0.4096 4.9152 1.2288 7.3728 2.4576 2.4576 0.8192 4.9152 2.048 7.3728 3.6864l6.144 4.9152 4.9152 6.144z" p-id="9899"></path></svg>