<?xml version="1.0" standalone="no"?><!DOCTYPE svg PUBLIC "-//W3C//DTD SVG 1.1//EN" "http://www.w3.org/Graphics/SVG/1.1/DTD/svg11.dtd"><svg t="1705143007988" class="icon" viewBox="0 0 1024 1024" version="1.1" xmlns="http://www.w3.org/2000/svg" p-id="9764" xmlns:xlink="http://www.w3.org/1999/xlink" width="200" height="200"><path d="M392.533333 545.28L95.573333 198.4a39.381333 39.381333 0 0 1-7.68-12.8C86.186667 180.48 85.333333 175.786667 85.333333 170.666667c0-2.986667 0.426667-5.546667 0.853334-8.533334 0.426667-2.56 1.28-5.12 2.56-7.68 0.853333-2.56 2.133333-5.12 3.84-7.68l5.12-6.4 6.4-5.12c2.56-1.706667 5.12-2.986667 7.68-3.84 2.56-1.28 5.12-2.133333 7.68-2.56 2.986667-0.426667 5.546667-0.853333 8.533333-0.853333h768c5.12 0 9.813333 0.853333 14.933333 2.56 4.693333 1.706667 8.96 4.266667 12.8 7.68 4.266667 3.84 7.68 8.106667 10.24 13.226667s4.266667 10.24 4.693334 15.786666c0.426667 5.546667-0.426667 11.093333-2.133334 16.64s-4.266667 10.24-8.106666 14.506667l-296.96 346.88v329.386667c0 6.826667-1.28 12.8-4.266667 18.773333a44.928 44.928 0 0 1-24.746667 21.76c-5.546667 1.706667-10.666667 2.56-16.64 2.133333a41.472 41.472 0 0 1-15.786666-4.266666l-153.6-75.946667c-3.84-1.706667-6.826667-4.266667-9.813334-6.826667a38.826667 38.826667 0 0 1-12.373333-20.053333 35.925333 35.925333 0 0 1-1.706667-11.52v-253.44z m163.84-43.52L803.413333 213.333333H220.586667l247.04 288.426667c3.413333 3.84 5.973333 8.106667 7.68 12.8 1.706667 5.12 2.56 9.813333 2.56 14.933333v242.773334l68.266666 33.706666v-276.48c0-5.12 0.853333-9.813333 2.56-14.933333 1.706667-4.693333 4.266667-8.96 7.68-12.8z" p-id="9765"></path></svg>