<svg xmlns="http://www.w3.org/2000/svg" width="200" height="200" class="icon" viewBox="0 0 1024 1024"><path d="M392.533 545.28 95.573 198.4a39.4 39.4 0 0 1-7.68-12.8c-1.706-5.12-2.56-9.813-2.56-14.933 0-2.987.427-5.547.854-8.534q.64-3.84 2.56-7.68 1.28-3.84 3.84-7.68l5.12-6.4 6.4-5.12q3.84-2.559 7.68-3.84 3.84-1.92 7.68-2.56c2.986-.426 5.546-.853 8.533-.853h768c5.12 0 9.813.853 14.933 2.56q7.04 2.56 12.8 7.68c4.267 3.84 7.68 8.107 10.24 13.227s4.267 10.24 4.694 15.786c.426 5.547-.427 11.094-2.134 16.64s-4.266 10.24-8.106 14.507l-296.96 346.88v329.387c0 6.826-1.28 12.8-4.267 18.773a44.93 44.93 0 0 1-24.747 21.76c-5.546 1.707-10.666 2.56-16.64 2.133a41.5 41.5 0 0 1-15.786-4.266l-153.6-75.947c-3.84-1.707-6.827-4.267-9.814-6.827a38.83 38.83 0 0 1-12.373-20.053 35.9 35.9 0 0 1-1.707-11.52zm163.84-43.52 247.04-288.427H220.587l247.04 288.427q5.12 5.76 7.68 12.8c1.706 5.12 2.56 9.813 2.56 14.933v242.774l68.266 33.706v-276.48c0-5.12.854-9.813 2.56-14.933q2.56-7.04 7.68-12.8"/></svg>