<svg xmlns="http://www.w3.org/2000/svg" width="200" height="200" class="icon" viewBox="0 0 1024 1024"><path d="m743.114 188.044 152.358 279.272c13.964 26.066 14.895 57.096 2.793 83.782l-2.793 5.586-152.358 279.272c-15.515 27.928-44.063 46.236-75.714 48.097l-6.206.31H362.682c-31.961 0-61.75-16.445-78.817-43.442l-2.793-4.965-152.358-279.272a92.78 92.78 0 0 1-2.793-83.782l2.793-5.586 152.358-279.272c15.205-27.928 43.753-46.236 75.714-48.097l5.896-.31h298.512c32.271 0 61.75 16.445 78.817 43.442zm-560.097 338.85 152.359 279.273c4.964 8.689 13.653 14.585 23.583 15.826l3.723.31h298.512c10.24 0 19.549-4.965 25.445-13.033l1.861-3.103 152.36-279.272a30.72 30.72 0 0 0 1.55-26.066l-1.55-3.724L688.5 217.833c-4.654-8.689-13.653-14.585-23.272-15.826l-4.034-.31H362.682c-10.24 0-19.549 4.965-25.134 13.033l-2.172 3.103-152.36 279.272a30.72 30.72 0 0 0-1.55 26.066z"/><path d="M512 667.152c-85.644 0-155.152-69.508-155.152-155.152S426.356 356.848 512 356.848 667.152 426.356 667.152 512 597.644 667.152 512 667.152M605.09 512c0-51.51-41.58-93.09-93.09-93.09s-93.09 41.58-93.09 93.09 41.58 93.09 93.09 93.09 93.09-41.58 93.09-93.09"/></svg>