<?xml version="1.0" standalone="no"?><!DOCTYPE svg PUBLIC "-//W3C//DTD SVG 1.1//EN" "http://www.w3.org/Graphics/SVG/1.1/DTD/svg11.dtd"><svg t="1705141158510" class="icon" viewBox="0 0 1024 1024" version="1.1" xmlns="http://www.w3.org/2000/svg" p-id="8289" xmlns:xlink="http://www.w3.org/1999/xlink" width="200" height="200"><path d="M743.113697 188.043636l152.358788 279.272728c13.963636 26.065455 14.894545 57.095758 2.792727 83.781818l-2.792727 5.585454-152.358788 279.272728c-15.515152 27.927273-44.06303 46.235152-75.713939 48.096969l-6.206061 0.310303h-298.511515c-31.961212 0-61.750303-16.446061-78.81697-43.442424l-2.792727-4.964848-152.358788-279.272728a92.780606 92.780606 0 0 1-2.792727-83.781818l2.792727-5.585454 152.358788-279.272728c15.204848-27.927273 43.752727-46.235152 75.713939-48.096969l5.895758-0.310303h298.511515c32.271515 0 61.750303 16.446061 78.81697 43.442424l3.10303 4.964848zM183.016727 526.894545l152.358788 279.272728c4.964848 8.688485 13.653333 14.584242 23.58303 15.825454l3.723637 0.310303h298.511515c10.24 0 19.549091-4.964848 25.444848-13.032727l1.861819-3.10303 152.358788-279.272728a30.72 30.72 0 0 0 1.551515-26.065454l-1.551515-3.723636-152.358788-279.272728c-4.654545-8.688485-13.653333-14.584242-23.272728-15.825454l-4.033939-0.310303h-298.511515c-10.24 0-19.549091 4.964848-25.134546 13.032727l-2.172121 3.10303-152.358788 279.272728a30.72 30.72 0 0 0-1.551515 26.065454l1.551515 3.723636z" fill="#000000" fill-opacity=".85" p-id="8290"></path><path d="M512 667.151515c-85.643636 0-155.151515-69.507879-155.151515-155.151515s69.507879-155.151515 155.151515-155.151515 155.151515 69.507879 155.151515 155.151515-69.507879 155.151515-155.151515 155.151515z m93.090909-155.151515c0-51.510303-41.580606-93.090909-93.090909-93.090909s-93.090909 41.580606-93.090909 93.090909 41.580606 93.090909 93.090909 93.090909 93.090909-41.580606 93.090909-93.090909z" fill="#0092FF" p-id="8291"></path></svg>