<svg xmlns="http://www.w3.org/2000/svg" width="200" height="200" class="icon" viewBox="0 0 1024 1024"><path d="M389.079 184.32h532.48a40.878 40.878 0 0 1 37.888 56.648 40.76 40.76 0 0 1-29.9 24.494 41 41 0 0 1-7.947.778H389.079a40.84 40.84 0 0 1-40.14-32.973 40.88 40.88 0 0 1 32.153-48.169 41 41 0 0 1 7.987-.778m-163.84 286.72H143.36a40.878 40.878 0 0 0-37.806 56.648 40.84 40.84 0 0 0 37.806 25.272h81.92a40.878 40.878 0 0 0 34.038-63.693 41 41 0 0 0-34.038-18.227zm696.32 0H389.12a40.878 40.878 0 0 0-37.847 56.648 40.84 40.84 0 0 0 37.847 25.272H921.6a40.878 40.878 0 0 0 37.888-56.607 40.67 40.67 0 0 0-29.9-24.494 41 41 0 0 0-7.947-.819zm-532.48 286.72h532.48a40.878 40.878 0 0 1 37.888 56.648 40.67 40.67 0 0 1-29.9 24.494 41 41 0 0 1-7.947.819H389.079a40.878 40.878 0 0 1-34.038-63.734 41.2 41.2 0 0 1 34.038-18.227m-163.84 0H143.36a40.878 40.878 0 0 0-34.038 63.734 41 41 0 0 0 34.038 18.186h81.92a40.878 40.878 0 0 0 34.038-63.693 41.2 41.2 0 0 0-34.038-18.227zm0-573.44H143.36a40.878 40.878 0 0 0-34.038 63.734 40.88 40.88 0 0 0 34.038 18.186h81.92a40.84 40.84 0 0 0 40.14-32.973 40.878 40.878 0 0 0-40.14-48.947z"/></svg>