<svg xmlns="http://www.w3.org/2000/svg" width="200" height="200" class="icon" viewBox="0 0 1024 1024"><path d="M656.213 131.413q3.84 1.281 7.68 3.84l6.4 5.12 256 256 5.12 6.4q2.56 3.84 3.84 7.68 1.92 3.84 2.56 7.68c.427 2.987.854 5.547.854 8.534s-.427 5.546-.854 8.533q-.64 3.84-2.56 7.68-1.28 3.84-3.84 7.68l-5.12 6.4-6.4 5.12q-3.84 2.56-7.68 3.84-3.84 1.92-7.68 2.56c-2.986.427-5.546.853-8.533.853H128c-2.987 0-5.547-.426-8.533-.853a27.1 27.1 0 0 1-7.68-2.56 32.3 32.3 0 0 1-7.68-3.84l-6.4-5.12-5.12-6.4a32.3 32.3 0 0 1-3.84-7.68 27.1 27.1 0 0 1-2.56-7.68c-.427-2.987-.854-5.547-.854-8.533s.427-5.547.854-8.534q.64-3.84 2.56-7.68 1.28-3.84 3.84-7.68l5.12-6.4 6.4-5.12q3.84-2.559 7.68-3.84 3.84-1.92 7.68-2.56c2.986-.426 5.546-.853 8.533-.853h664.747l-183.04-183.04-5.12-6.4a32.3 32.3 0 0 1-3.84-7.68 27.1 27.1 0 0 1-2.56-7.68c-.427-2.987-.854-5.547-.854-8.533s.427-5.547.854-8.534q.64-3.84 2.56-7.68 1.28-3.84 3.84-7.68l5.12-6.4 6.4-5.12q3.84-2.559 7.68-3.84 3.84-1.92 7.68-2.56c2.986-.426 5.546-.853 8.533-.853s5.547.427 8.533.853q3.84.64 7.68 2.56M145.067 554.667h768c2.986 0 5.546.426 8.533.853q3.84.64 7.68 2.56 3.84 1.28 7.68 3.84l6.4 5.12 5.12 6.4q2.56 3.84 3.84 7.68 1.92 3.84 2.56 7.68c.427 2.987.853 5.547.853 8.533s-.426 5.547-.853 8.534q-.64 3.84-2.56 7.68-1.28 3.84-3.84 7.68l-5.12 6.4-6.4 5.12q-3.84 2.559-7.68 3.84-3.84 1.92-7.68 2.56c-2.987.426-5.547.853-8.533.853H248.32l183.04 183.04 5.12 6.4q2.56 3.84 3.84 7.68 1.92 3.84 2.56 7.68c.427 2.987.853 5.547.853 8.533s-.426 5.547-.853 8.534q-.64 3.84-2.56 7.68-1.28 3.84-3.84 7.68l-5.12 6.4-6.4 5.12q-3.84 2.559-7.68 3.84-3.84 1.92-7.68 2.56c-2.987.426-5.547.853-8.533.853s-5.547-.427-8.534-.853a27.1 27.1 0 0 1-7.68-2.56 32.3 32.3 0 0 1-7.68-3.84l-6.4-5.12-256-256-5.12-6.4a32.3 32.3 0 0 1-3.84-7.68 27.1 27.1 0 0 1-2.56-7.68c-.426-2.987-.853-5.547-.853-8.534s.427-5.546.853-8.533q.64-3.84 2.56-7.68 1.281-3.84 3.84-7.68l5.12-6.4 6.4-5.12q3.84-2.56 7.68-3.84 3.84-1.92 7.68-2.56c2.987-.427 5.547-.853 8.534-.853"/></svg>