<?xml version="1.0" standalone="no"?><!DOCTYPE svg PUBLIC "-//W3C//DTD SVG 1.1//EN" "http://www.w3.org/Graphics/SVG/1.1/DTD/svg11.dtd"><svg t="1705142726696" class="icon" viewBox="0 0 1024 1024" version="1.1" xmlns="http://www.w3.org/2000/svg" p-id="9228" xmlns:xlink="http://www.w3.org/1999/xlink" width="200" height="200"><path d="M656.213333 131.413333c2.56 0.853333 5.12 2.133333 7.68 3.84l6.4 5.12 256 256 5.12 6.4c1.706667 2.56 2.986667 5.12 3.84 7.68 1.28 2.56 2.133333 5.12 2.56 7.68 0.426667 2.986667 0.853333 5.546667 0.853334 8.533334s-0.426667 5.546667-0.853334 8.533333c-0.426667 2.56-1.28 5.12-2.56 7.68-0.853333 2.56-2.133333 5.12-3.84 7.68l-5.12 6.4-6.4 5.12c-2.56 1.706667-5.12 2.986667-7.68 3.84-2.56 1.28-5.12 2.133333-7.68 2.56-2.986667 0.426667-5.546667 0.853333-8.533333 0.853333H128c-2.986667 0-5.546667-0.426667-8.533333-0.853333a27.136 27.136 0 0 1-7.68-2.56 32.298667 32.298667 0 0 1-7.68-3.84l-6.4-5.12-5.12-6.4a32.298667 32.298667 0 0 1-3.84-7.68 27.136 27.136 0 0 1-2.56-7.68c-0.426667-2.986667-0.853333-5.546667-0.853334-8.533333s0.426667-5.546667 0.853334-8.533334c0.426667-2.56 1.28-5.12 2.56-7.68 0.853333-2.56 2.133333-5.12 3.84-7.68l5.12-6.4 6.4-5.12c2.56-1.706667 5.12-2.986667 7.68-3.84 2.56-1.28 5.12-2.133333 7.68-2.56 2.986667-0.426667 5.546667-0.853333 8.533333-0.853333h664.746667l-183.04-183.04-5.12-6.4a32.298667 32.298667 0 0 1-3.84-7.68 27.136 27.136 0 0 1-2.56-7.68c-0.426667-2.986667-0.853333-5.546667-0.853334-8.533333s0.426667-5.546667 0.853334-8.533334c0.426667-2.56 1.28-5.12 2.56-7.68 0.853333-2.56 2.133333-5.12 3.84-7.68l5.12-6.4 6.4-5.12c2.56-1.706667 5.12-2.986667 7.68-3.84 2.56-1.28 5.12-2.133333 7.68-2.56 2.986667-0.426667 5.546667-0.853333 8.533333-0.853333s5.546667 0.426667 8.533333 0.853333c2.56 0.426667 5.12 1.28 7.68 2.56zM145.066667 554.666667h768c2.986667 0 5.546667 0.426667 8.533333 0.853333 2.56 0.426667 5.12 1.28 7.68 2.56 2.56 0.853333 5.12 2.133333 7.68 3.84l6.4 5.12 5.12 6.4c1.706667 2.56 2.986667 5.12 3.84 7.68 1.28 2.56 2.133333 5.12 2.56 7.68 0.426667 2.986667 0.853333 5.546667 0.853333 8.533333s-0.426667 5.546667-0.853333 8.533334c-0.426667 2.56-1.28 5.12-2.56 7.68-0.853333 2.56-2.133333 5.12-3.84 7.68l-5.12 6.4-6.4 5.12c-2.56 1.706667-5.12 2.986667-7.68 3.84-2.56 1.28-5.12 2.133333-7.68 2.56-2.986667 0.426667-5.546667 0.853333-8.533333 0.853333H248.32l183.04 183.04 5.12 6.4c1.706667 2.56 2.986667 5.12 3.84 7.68 1.28 2.56 2.133333 5.12 2.56 7.68 0.426667 2.986667 0.853333 5.546667 0.853333 8.533333s-0.426667 5.546667-0.853333 8.533334c-0.426667 2.56-1.28 5.12-2.56 7.68-0.853333 2.56-2.133333 5.12-3.84 7.68l-5.12 6.4-6.4 5.12c-2.56 1.706667-5.12 2.986667-7.68 3.84-2.56 1.28-5.12 2.133333-7.68 2.56-2.986667 0.426667-5.546667 0.853333-8.533333 0.853333s-5.546667-0.426667-8.533334-0.853333a27.136 27.136 0 0 1-7.68-2.56 32.298667 32.298667 0 0 1-7.68-3.84l-6.4-5.12-256-256-5.12-6.4a32.298667 32.298667 0 0 1-3.84-7.68 27.136 27.136 0 0 1-2.56-7.68c-0.426667-2.986667-0.853333-5.546667-0.853333-8.533334s0.426667-5.546667 0.853333-8.533333c0.426667-2.56 1.28-5.12 2.56-7.68 0.853333-2.56 2.133333-5.12 3.84-7.68l5.12-6.4 6.4-5.12c2.56-1.706667 5.12-2.986667 7.68-3.84 2.56-1.28 5.12-2.133333 7.68-2.56 2.986667-0.426667 5.546667-0.853333 8.533334-0.853333z" p-id="9229"></path></svg>