<?xml version="1.0" standalone="no"?><!DOCTYPE svg PUBLIC "-//W3C//DTD SVG 1.1//EN" "http://www.w3.org/Graphics/SVG/1.1/DTD/svg11.dtd"><svg t="1705143839771" class="icon" viewBox="0 0 1024 1024" version="1.1" xmlns="http://www.w3.org/2000/svg" p-id="8422" xmlns:xlink="http://www.w3.org/1999/xlink" width="200" height="200"><path d="M896 485.12l-52.906667 345.6a76.8 76.8 0 0 1-76.8 65.28H320v-422.4l142.336-320.256c6.826667-15.402667 22.357333-26.026667 38.741333-22.058667A115.328 115.328 0 0 1 588.8 243.2v153.6h230.4c22.613333-0.426667 43.946667 9.386667 58.88 26.453333 14.933333 17.066667 21.333333 39.68 17.92 61.866667zM277.333333 469.333333v426.666667H217.6c-45.226667 0.853333-83.626667-32-89.6-76.8v-268.8c5.973333-44.373333 44.373333-81.92 89.6-81.066667h59.733333z" p-id="8423"></path></svg>