<?xml version="1.0" standalone="no"?><!DOCTYPE svg PUBLIC "-//W3C//DTD SVG 1.1//EN" "http://www.w3.org/Graphics/SVG/1.1/DTD/svg11.dtd"><svg t="1705143856057" class="icon" viewBox="0 0 1024 1024" version="1.1" xmlns="http://www.w3.org/2000/svg" p-id="8556" xmlns:xlink="http://www.w3.org/1999/xlink" width="200" height="200"><path d="M512 0c282.88 0 512 229.12 512 512s-229.12 512-512 512S0 794.88 0 512 229.12 0 512 0z m8.533333 503.466667V298.666667c0-28.16-23.04-51.2-51.2-51.2-28.16 0-51.2 23.04-51.2 51.2v256c0 28.16 23.04 51.2 51.2 51.2h256c28.16 0 51.2-23.04 51.2-51.2l-0.426666-6.4A51.2 51.2 0 0 0 725.333333 503.466667h-204.8z" p-id="8557"></path></svg>