<?xml version="1.0" standalone="no"?><!DOCTYPE svg PUBLIC "-//W3C//DTD SVG 1.1//EN" "http://www.w3.org/Graphics/SVG/1.1/DTD/svg11.dtd"><svg t="1705143226853" class="icon" viewBox="0 0 1024 1024" version="1.1" xmlns="http://www.w3.org/2000/svg" p-id="10434" xmlns:xlink="http://www.w3.org/1999/xlink" width="200" height="200"><path d="M392.192 133.418667c-2.986667-0.426667-5.546667-0.853333-8.533333-0.853334s-5.546667 0.426667-8.533334 0.853334c-2.56 0.426667-5.12 1.28-7.68 2.56-2.56 0.853333-5.12 2.133333-7.68 3.84l-6.4 5.12a509.269333 509.269333 0 0 0-110.933333 165.12c-27.306667 64-40.96 131.413333-40.96 201.813333 0 70.4 13.653333 137.813333 40.96 202.24 26.026667 62.293333 63.146667 116.906667 110.933333 165.12 4.266667 3.84 8.533333 6.826667 14.08 8.96 5.12 2.133333 10.666667 3.413333 16.213334 3.413333s11.093333-1.28 16.213333-3.413333c5.546667-2.133333 9.813333-5.12 14.08-8.96 3.84-4.266667 6.826667-8.533333 8.96-14.08 2.133333-5.12 3.413333-10.666667 3.413333-16.213333s-1.28-11.093333-3.413333-16.213334c-2.133333-5.546667-5.12-9.813333-8.96-14.08a425.045333 425.045333 0 0 1-93.013333-137.813333c-22.613333-53.76-34.133333-110.08-34.133334-168.96s11.52-115.2 34.133334-168.533333a425.045333 425.045333 0 0 1 93.013333-137.813334l5.12-6.4c1.706667-2.56 2.986667-5.12 3.84-7.68 1.28-2.56 2.133333-5.12 2.56-7.68 0.426667-2.986667 0.853333-5.546667 0.853333-8.533333s-0.426667-5.546667-0.853333-8.533333a27.136 27.136 0 0 0-2.56-7.68 32.298667 32.298667 0 0 0-3.84-7.68l-5.12-6.4-6.4-5.12a32.298667 32.298667 0 0 0-7.68-3.84 27.136 27.136 0 0 0-7.68-2.56z m129.536 179.925333c-25.6 26.026667-45.653333 55.893333-60.16 89.6-14.506667 34.56-21.76 71.253333-21.76 109.226667 0 37.973333 7.253333 74.24 21.76 109.226666 14.506667 33.28 34.56 63.146667 60.16 89.173334l6.4 5.12c2.56 1.706667 5.12 2.986667 7.68 3.84 2.56 1.28 5.12 2.133333 7.68 2.56 2.986667 0.426667 5.546667 0.853333 8.533333 0.853333s5.546667-0.426667 8.533334-0.853333c2.56-0.426667 5.12-1.28 7.68-2.56 2.56-0.853333 5.12-2.133333 7.68-3.84l6.4-5.12 5.12-6.4c1.706667-2.56 2.986667-5.12 3.84-7.68 1.28-2.56 2.133333-5.12 2.56-7.68 0.426667-2.986667 0.853333-5.546667 0.853333-8.533334s-0.426667-5.546667-0.853333-8.533333a27.136 27.136 0 0 0-2.56-7.68 32.298667 32.298667 0 0 0-3.84-7.68l-5.12-6.4c-18.346667-17.92-32-38.4-41.813334-61.866667-10.24-23.893333-15.36-49.493333-15.36-75.946666 0-26.453333 5.12-52.053333 15.36-76.373334 9.813333-23.466667 23.893333-43.946667 41.813334-61.866666l5.12-6.4c1.706667-2.56 2.986667-5.12 3.84-7.68 1.28-2.56 2.133333-5.12 2.56-7.68 0.426667-2.986667 0.853333-5.546667 0.853333-8.533334s-0.426667-5.546667-0.853333-8.533333a27.136 27.136 0 0 0-2.56-7.68 32.298667 32.298667 0 0 0-3.84-7.68l-5.12-6.4-6.4-5.12a32.298667 32.298667 0 0 0-7.68-3.84 27.136 27.136 0 0 0-7.68-2.56c-2.986667-0.426667-5.546667-0.853333-8.533334-0.853333s-5.546667 0.426667-8.533333 0.853333c-2.56 0.426667-5.12 1.28-7.68 2.56-2.56 0.853333-5.12 2.133333-7.68 3.84l-6.4 5.12z m198.912 266.709333c37.546667 0 67.84-30.293333 67.84-68.266666 0-37.546667-30.293333-67.84-67.84-67.84-37.973333 0-68.266667 30.293333-68.266667 67.84 0 37.973333 30.293333 68.266667 68.266667 68.266666z" p-id="10435"></path></svg>