<svg xmlns="http://www.w3.org/2000/svg" width="200" height="200" class="icon" viewBox="0 0 1024 1024"><path d="M392.192 133.419c-2.987-.427-5.547-.854-8.533-.854s-5.547.427-8.534.854q-3.84.64-7.68 2.56-3.84 1.28-7.68 3.84l-6.4 5.12a509.3 509.3 0 0 0-110.933 165.12c-27.307 64-40.96 131.413-40.96 201.813q0 105.6 40.96 202.24c26.027 62.293 63.147 116.907 110.933 165.12 4.267 3.84 8.534 6.827 14.08 8.96 5.12 2.133 10.667 3.413 16.214 3.413s11.093-1.28 16.213-3.413c5.547-2.133 9.813-5.12 14.08-8.96 3.84-4.267 6.827-8.533 8.96-14.08 2.133-5.12 3.413-10.667 3.413-16.213s-1.28-11.094-3.413-16.214c-2.133-5.546-5.12-9.813-8.96-14.08a425 425 0 0 1-93.013-137.813c-22.614-53.76-34.134-110.08-34.134-168.96s11.52-115.2 34.134-168.533a425 425 0 0 1 93.013-137.814l5.12-6.4q2.56-3.84 3.84-7.68 1.92-3.84 2.56-7.68c.427-2.986.853-5.546.853-8.533s-.426-5.547-.853-8.533a27.1 27.1 0 0 0-2.56-7.68 32.3 32.3 0 0 0-3.84-7.68l-5.12-6.4-6.4-5.12a32.3 32.3 0 0 0-7.68-3.84 27.1 27.1 0 0 0-7.68-2.56m129.536 179.925q-38.4 39.04-60.16 89.6c-14.507 34.56-21.76 71.253-21.76 109.227 0 37.973 7.253 74.24 21.76 109.226 14.507 33.28 34.56 63.147 60.16 89.174l6.4 5.12q3.84 2.559 7.68 3.84 3.84 1.92 7.68 2.56c2.987.426 5.547.853 8.533.853s5.547-.427 8.534-.853q3.84-.64 7.68-2.56 3.84-1.281 7.68-3.84l6.4-5.12 5.12-6.4q2.559-3.84 3.84-7.68 1.92-3.84 2.56-7.68c.426-2.987.853-5.547.853-8.534s-.427-5.546-.853-8.533a27.1 27.1 0 0 0-2.56-7.68 32.3 32.3 0 0 0-3.84-7.68l-5.12-6.4c-18.347-17.92-32-38.4-41.814-61.867-10.24-23.893-15.36-49.493-15.36-75.946 0-26.454 5.12-52.054 15.36-76.374 9.814-23.466 23.894-43.946 41.814-61.866l5.12-6.4q2.559-3.84 3.84-7.68 1.92-3.84 2.56-7.68c.426-2.987.853-5.547.853-8.534s-.427-5.546-.853-8.533a27.1 27.1 0 0 0-2.56-7.68 32.3 32.3 0 0 0-3.84-7.68l-5.12-6.4-6.4-5.12a32.3 32.3 0 0 0-7.68-3.84 27.1 27.1 0 0 0-7.68-2.56c-2.987-.427-5.547-.853-8.534-.853s-5.546.426-8.533.853q-3.84.64-7.68 2.56-3.84 1.28-7.68 3.84zm198.912 266.71c37.547 0 67.84-30.294 67.84-68.267 0-37.547-30.293-67.84-67.84-67.84-37.973 0-68.267 30.293-68.267 67.84 0 37.973 30.294 68.266 68.267 68.266"/></svg>