<svg xmlns="http://www.w3.org/2000/svg" width="200" height="200" class="icon" viewBox="0 0 1024 1024"><path d="M512 967.111c-125.61 0-239.388-50.972-321.764-133.347A453.7 453.7 0 0 1 56.89 512c0-125.61 50.972-239.388 133.347-321.764A453.7 453.7 0 0 1 512 56.89c125.61 0 239.388 50.972 321.764 133.347A453.7 453.7 0 0 1 967.11 512c0 125.61-50.972 239.388-133.347 321.764A453.7 453.7 0 0 1 512 967.11m-37.774-753.664q-2.73 4.095-4.096 8.192-2.049 4.095-2.73 8.192c-.456 3.186-.911 5.917-.911 9.102v364.09c0 3.185.455 5.916.91 9.101q.683 4.097 2.73 8.192 1.366 4.097 4.097 8.192l5.461 6.827 6.827 5.461q4.095 2.73 8.192 4.096 4.095 2.049 8.192 2.731c3.186.455 5.916.91 9.102.91s5.916-.455 9.102-.91q4.096-.683 8.192-2.73 4.096-1.365 8.192-4.097l6.827-5.46 5.461-6.828q2.73-4.095 4.096-8.192 2.049-4.095 2.73-8.192c.456-3.185.911-5.916.911-9.102V238.933c0-3.185-.455-5.916-.91-9.102a29 29 0 0 0-2.73-8.192 34.5 34.5 0 0 0-4.097-8.192l-5.461-6.827-6.827-5.46a34.5 34.5 0 0 0-8.192-4.097 29 29 0 0 0-8.192-2.73c-3.186-.456-5.916-.91-9.102-.91s-5.916.454-9.102.91q-4.096.683-8.192 2.73-4.096 1.365-8.192 4.096l-6.827 5.461zM455.11 750.933a56.889 56.889 0 1 0 113.778 0 56.889 56.889 0 0 0-113.778 0"/></svg>