<?xml version="1.0" standalone="no"?><!DOCTYPE svg PUBLIC "-//W3C//DTD SVG 1.1//EN" "http://www.w3.org/Graphics/SVG/1.1/DTD/svg11.dtd"><svg t="1705143617533" class="icon" viewBox="0 0 1024 1024" version="1.1" xmlns="http://www.w3.org/2000/svg" p-id="8154" xmlns:xlink="http://www.w3.org/1999/xlink" width="200" height="200"><path d="M512 967.11111147c-125.61066667 0-239.3884448-50.9724448-321.7635552-133.34755627A453.70026667 453.70026667 0 0 1 56.88888853 512c0-125.61066667 50.9724448-239.3884448 133.34755627-321.7635552A453.70026667 453.70026667 0 0 1 512 56.88888853c125.61066667 0 239.3884448 50.9724448 321.7635552 133.34755627A453.70026667 453.70026667 0 0 1 967.11111147 512c0 125.61066667-50.9724448 239.3884448-133.34755627 321.7635552A453.70026667 453.70026667 0 0 1 512 967.11111147z m-37.77422187-753.664c-1.8204448 2.73066667-3.18577813 5.46133333-4.096 8.192-1.36533333 2.73066667-2.2755552 5.46133333-2.73066666 8.192-0.45511147 3.18577813-0.91022187 5.9164448-0.91022294 9.10222186v364.08888854c0 3.18577813 0.45511147 5.9164448 0.91022294 9.10222293 0.45511147 2.73066667 1.36533333 5.46133333 2.73066666 8.192 0.91022187 2.73066667 2.2755552 5.46133333 4.096 8.192l5.46133334 6.82666667 6.82666666 5.46133333c2.73066667 1.8204448 5.46133333 3.18577813 8.192 4.096 2.73066667 1.36533333 5.46133333 2.2755552 8.192 2.73066667 3.18577813 0.45511147 5.9164448 0.91022187 9.10222187 0.91022186s5.9164448-0.45511147 9.10222187-0.91022186c2.73066667-0.45511147 5.46133333-1.36533333 8.192-2.73066667 2.73066667-0.91022187 5.46133333-2.2755552 8.192-4.096l6.82666666-5.46133333 5.46133334-6.82666667c1.8204448-2.73066667 3.18577813-5.46133333 4.096-8.192 1.36533333-2.73066667 2.2755552-5.46133333 2.73066666-8.192 0.45511147-3.18577813 0.91022187-5.9164448 0.91022294-9.10222293V238.93333333c0-3.18577813-0.45511147-5.9164448-0.91022294-9.10222186a28.94506667 28.94506667 0 0 0-2.73066666-8.192 34.45191147 34.45191147 0 0 0-4.096-8.192l-5.46133334-6.82666667-6.82666666-5.46133333a34.45191147 34.45191147 0 0 0-8.192-4.096 28.94506667 28.94506667 0 0 0-8.192-2.73066667c-3.18577813-0.45511147-5.9164448-0.91022187-9.10222187-0.91022293s-5.9164448 0.45511147-9.10222187 0.91022293c-2.73066667 0.45511147-5.46133333 1.36533333-8.192 2.73066667-2.73066667 0.91022187-5.46133333 2.2755552-8.192 4.096l-6.82666666 5.46133333-5.46133334 6.82666667z m-19.11466666 537.48622186a56.88888853 56.88888853 0 1 0 113.77777706 0 56.88888853 56.88888853 0 0 0-113.77777706 0z" p-id="8155"></path></svg>